<?xml version="1.0" encoding="UTF-8"?>
<svg version="1.1" xmlns="http://www.w3.org/2000/svg" width="5343" height="5332">
<path d="M0 0 C3.88541514 0.01739645 7.77022671 0.0066713 11.65562344 -0.01032925 C73.43638662 -0.23843944 142.92389347 7.05611916 194.34375 44.39111328 C194.87532715 44.77299805 195.4069043 45.15488281 195.95458984 45.54833984 C219.65925252 62.69758708 237.88581133 84.46479026 251.34375 110.39111328 C251.67826172 111.02355957 252.01277344 111.65600586 252.35742188 112.30761719 C265.56199133 137.55202556 272.31785063 166.02103578 276.59375 194.01611328 C276.74497314 195.00224609 276.89619629 195.98837891 277.05200195 197.00439453 C280.2182763 219.34531169 280.756957 241.74373103 280.73095703 264.26855469 C280.7308922 265.4164374 280.7308922 265.4164374 280.73082605 266.58750966 C280.72586349 298.42549374 279.05823688 330.02250501 276.6449937 361.76318604 C276.06322421 369.43264479 275.51395906 377.10437195 274.96562473 384.77628194 C274.07154357 397.28231279 273.1654394 409.78741743 272.24727786 422.29170239 C270.6287131 444.33475061 269.06848396 466.38156513 267.53445853 488.43064697 C267.34406054 491.16728783 267.15354406 493.90392042 266.96299112 496.64055049 C266.28584731 506.36543625 266.28584731 506.36543625 265.60900494 516.09034299 C264.13128182 537.32744783 262.63920204 558.5635366 261.14451693 579.79945354 C260.93332685 582.79998527 260.72217095 585.80051941 260.51102316 588.80105412 C259.71926543 600.05207387 258.9271974 611.30307175 258.1349631 622.55405794 C257.61076196 629.99871453 257.08673116 637.44338309 256.5627861 644.88805771 C249.01390212 752.14780632 241.43839398 859.40565649 213.46747589 1250.57639313 C213.40540812 1251.43943065 213.34334035 1252.30246817 213.27939174 1253.19165835 C211.91647493 1272.14013792 210.55214772 1291.088516 209.18678474 1310.03681946 C209.11218104 1311.07215946 209.03757734 1312.10749946 208.96071292 1313.1742134 C207.30508556 1336.14979223 205.64719606 1359.12520746 203.98794556 1382.1005249 C203.91308087 1383.13718769 203.83821619 1384.17385049 203.76108288 1385.2419273 C200.36108634 1432.32127274 196.95247708 1479.39999197 193.5384283 1526.47832035 C193.30369592 1529.71520583 193.06897489 1532.95209214 192.83425505 1536.18897854 C185.44797198 1638.04711719 178.02942836 1739.90289536 170.59729989 1841.75769821 C169.97484251 1850.28830723 169.35244961 1858.81892096 168.7300837 1867.34953666 C162.59869156 1951.39030335 156.46511716 2035.430914 132.567865 2361.5239824 C132.41789932 2363.56784079 132.26793441 2365.61169923 132.11796965 2367.65555769 C127.12715629 2435.67488443 122.13470823 2503.69409117 115.16448424 2598.64406046 C111.49673623 2648.60670537 107.82936876 2698.56937822 104.16220638 2748.53206613 C103.55326914 2756.82842967 102.94431939 2765.1247923 102.33536033 2773.42115425 C97.94999606 2833.16667321 93.5657375 2892.91227292 89.18549963 2952.65816797 C88.79688468 2957.95879901 88.40825787 2963.25942917 88.019631 2968.56005933 C87.53651645 2975.14944923 87.05340739 2981.73883954 86.57029915 2988.3282299 C86.47500997 2989.62793295 86.37972078 2990.927636 86.28154405 2992.26672398 C85.32606248 3005.29911587 84.37060219 3018.33150932 83.41526039 3031.36391145 C79.04313068 3091.00672242 74.66495832 3150.64907937 70.27064009 3210.29025997 C69.83708694 3216.17460245 69.40355263 3222.05894632 68.97003841 3227.94329166 C68.84218071 3229.67877434 68.84218071 3229.67877434 68.71174002 3231.44931727 C67.44222525 3248.68206572 66.17453174 3265.91494739 64.90844822 3283.14794827 C64.82649504 3284.26342254 64.74454187 3285.37889682 64.66010526 3286.52817335 C63.84580404 3297.61218121 63.03176914 3308.6962086 62.21809022 3319.78026216 C61.82137664 3325.1842288 61.42458857 3330.58818998 61.02775002 3335.99214745 C60.9500865 3337.04974428 60.87242298 3338.10734111 60.79240602 3339.19698632 C59.66850486 3354.49970602 58.53985155 3369.80206957 57.40811729 3385.10421181 C55.74167288 3407.63951153 54.08215391 3430.17531033 52.43676758 3452.7121582 C52.33901095 3454.05106847 52.33901095 3454.05106847 52.23927944 3455.41702742 C46.68672259 3531.50155978 41.79119279 3607.62473361 37.06552798 3683.76459306 C35.8122322 3703.95264158 34.53721654 3724.13913675 33.23200989 3744.32389832 C33.11808589 3746.08716704 33.11808589 3746.08716704 33.0018604 3747.88605735 C28.9710614 3810.21677777 24.4845248 3872.47502299 18.47739792 3934.64926147 C18.22422136 3937.27193513 17.97253468 3939.89474869 17.72097778 3942.51757812 C15.17794366 3968.94481972 12.61481719 3995.45047586 7.09375 4021.45361328 C6.94790466 4022.14937469 6.80205933 4022.84513611 6.65179443 4023.5619812 C-0.0700548 4055.49188733 -10.35875762 4086.06003065 -24.65625 4115.39111328 C-25.03217285 4116.16890137 -25.4080957 4116.94668945 -25.79541016 4117.74804688 C-36.13798676 4138.92029903 -50.08221583 4158.58098374 -66.19140625 4175.73876953 C-68.15173868 4177.84822392 -70.01679683 4179.9805727 -71.84375 4182.20361328 C-75.09080595 4186.02853512 -78.82945746 4189.16225708 -82.65625 4192.39111328 C-84.079375 4193.64601562 -84.079375 4193.64601562 -85.53125 4194.92626953 C-114.17453636 4220.03168907 -149.47127754 4235.28506705 -186.65625 4242.39111328 C-187.48592285 4242.55627441 -188.3155957 4242.72143555 -189.17041016 4242.89160156 C-244.38106658 4253.42815273 -306.4401089 4241.55344557 -357.65625 4220.39111328 C-358.4301709 4220.07561523 -359.2040918 4219.76011719 -360.00146484 4219.43505859 C-377.48432264 4212.24521936 -393.62160366 4202.83257371 -408.65625 4191.39111328 C-409.52636719 4190.74529297 -410.39648438 4190.09947266 -411.29296875 4189.43408203 C-432.70744234 4172.80753056 -448.98245841 4152.16844918 -461.65625 4128.39111328 C-462.25348877 4127.272771 -462.25348877 4127.272771 -462.86279297 4126.13183594 C-486.06923771 4081.86931304 -491.84671775 4029.69295841 -491.84155273 3980.38256836 C-491.84368796 3978.1436704 -491.86181726 3975.90531232 -491.88085938 3973.66650391 C-491.92252435 3962.90903499 -491.47845255 3952.17406398 -490.92016602 3941.43334961 C-490.87863765 3940.6341274 -490.83710929 3939.83490519 -490.79432249 3939.01146412 C-489.49860001 3914.51193643 -487.55654421 3890.05450045 -485.69369422 3865.59305911 C-485.13210106 3858.21551341 -484.5760357 3850.83755336 -484.0202815 3843.45956588 C-483.05715971 3830.67410526 -482.09145164 3817.88884186 -481.12379425 3805.10372376 C-478.49659255 3770.39065869 -475.88969188 3735.67606546 -473.28432593 3700.96135569 C-473.08148728 3698.25886581 -472.87860667 3695.55637908 -472.67571378 3692.85389328 C-466.88394356 3615.70673938 -461.20397482 3538.55166925 -455.59375 3461.39111328 C-455.50940683 3460.23117111 -455.50940683 3460.23117111 -455.42335975 3459.04779577 C-451.98945365 3411.82187067 -448.57058024 3364.59486242 -445.16006467 3317.36724278 C-444.77014554 3311.96788459 -444.3801109 3306.56853474 -443.99001312 3301.16918945 C-438.36659598 3223.33425828 -432.77294038 3145.49721566 -422.84237218 3006.00995183 C-422.65608756 3003.38882761 -422.46978705 3000.76770452 -422.28348351 2998.14658165 C-415.3068832 2899.98962437 -408.37930383 2801.82920965 -338.99609375 1797.37939453 C-338.92378996 1796.32560884 -338.85148616 1795.27182315 -338.77699134 1794.18610456 C-332.21892774 1698.60595397 -325.66359006 1603.02561675 -319.11268449 1507.44497528 C-313.65104641 1427.75723467 -308.18621501 1348.06971398 -302.71514666 1268.38262022 C-301.57662679 1251.79972107 -300.43835954 1235.21680466 -299.30075836 1218.63384247 C-296.99898832 1185.08131637 -294.69554504 1151.52890744 -292.38497049 1117.97698635 C-292.19396264 1115.20324211 -292.00296253 1112.42949733 -291.81196785 1109.65575218 C-291.76517727 1108.97625355 -291.71838668 1108.29675491 -291.6701782 1107.59666541 C-290.97704953 1097.53019495 -290.28589605 1087.4635905 -289.59588432 1077.3969059 C-288.83639343 1066.31663813 -288.07455561 1055.23653524 -287.30934633 1044.15666084 C-286.92672841 1038.61557928 -286.54525179 1033.07442558 -286.16690946 1027.5330503 C-285.82500851 1022.52580531 -285.47984251 1017.51879701 -285.13194836 1012.51196494 C-285.0072811 1010.70930269 -284.88384187 1008.90655502 -284.76173037 1007.10371784 C-284.59694554 1004.67342623 -284.42777689 1002.24347931 -284.25744724 999.81357098 C-284.21088732 999.11115598 -284.16432739 998.40874098 -284.11635656 997.68504068 C-283.88786995 994.49014177 -283.58171212 991.46533829 -282.65625 988.39111328 C-283.23890625 988.13716797 -283.8215625 987.88322266 -284.421875 987.62158203 C-286.89813033 986.25790995 -288.46145626 984.74886125 -290.40625 982.70361328 C-293.61575202 979.33903029 -297.02435275 976.30142233 -300.53320312 973.25805664 C-303.94320143 970.25940703 -307.23288877 967.13640348 -310.53125 964.01611328 C-318.39994471 956.6078112 -326.27785038 949.2261235 -334.65625 942.39111328 C-338.88682757 946.56495897 -342.96808619 950.86712419 -347.03125 955.20361328 C-347.66546875 955.87714844 -348.2996875 956.55068359 -348.953125 957.24462891 C-352.74636186 961.289458 -356.44798231 965.39898887 -360.08447266 969.58520508 C-362.08089071 971.87900818 -364.11529041 974.13691911 -366.15625 976.39111328 C-368.84608431 979.37174049 -371.51935364 982.36356561 -374.15625 985.39111328 C-377.54878093 989.28624139 -381.00819201 993.11894091 -384.46875 996.95361328 C-386.95686687 999.72608636 -389.40692464 1002.52956177 -391.8515625 1005.34033203 C-393.88583141 1007.65200125 -395.9584731 1009.92642758 -398.03125 1012.20361328 C-401.10371773 1015.6019488 -404.04067622 1019.06701851 -406.90625 1022.64111328 C-411.56683865 1028.40552556 -416.59404281 1033.77963282 -421.66015625 1039.18408203 C-426.03741714 1043.85504648 -430.2076789 1048.68858869 -434.35546875 1053.56298828 C-435.37206756 1054.75597643 -436.38900588 1055.94867534 -437.40625 1057.14111328 C-437.92106934 1057.74479736 -438.43588867 1058.34848145 -438.96630859 1058.97045898 C-442.78837252 1063.43072312 -446.72846266 1067.76378442 -450.72607422 1072.06640625 C-453.62373224 1075.20614445 -456.35971573 1078.43277817 -459.03125 1081.76611328 C-463.64196639 1087.49633815 -468.63381638 1092.82196407 -473.66015625 1098.18408203 C-478.02615293 1102.84302647 -482.18800833 1107.66182131 -486.3203125 1112.52783203 C-491.87390882 1119.05518207 -497.51765657 1125.45407329 -503.37255859 1131.71289062 C-506.37679404 1134.94482376 -509.21661814 1138.25056395 -511.96875 1141.70361328 C-516.42310623 1147.25730789 -521.26073744 1152.40466792 -526.1652832 1157.55834961 C-529.90093776 1161.48803843 -533.53094725 1165.48553449 -537.08447266 1169.58081055 C-539.04028584 1171.83342855 -541.03181646 1174.05218113 -543.03125 1176.26611328 C-543.78921875 1177.10658203 -544.5471875 1177.94705078 -545.328125 1178.81298828 C-546.88020833 1180.53173828 -548.43229167 1182.25048828 -549.984375 1183.96923828 C-553.34050905 1187.69066584 -556.68849179 1191.41503419 -559.96875 1195.20361328 C-563.64066983 1199.42332534 -567.44997813 1203.51214439 -571.25317383 1207.61303711 C-573.92996255 1210.50440479 -576.5792109 1213.40983276 -579.15625 1216.39111328 C-583.66812512 1221.60216518 -588.38501615 1226.62755369 -593.07128906 1231.68115234 C-595.6240844 1234.43527719 -598.17154753 1237.19431654 -600.71875 1239.95361328 C-601.21737549 1240.49348877 -601.71600098 1241.03336426 -602.22973633 1241.58959961 C-605.50672805 1245.1395407 -608.77121297 1248.70059694 -612.03125 1252.26611328 C-617.90374387 1258.6828093 -623.83993323 1265.03946121 -629.78417969 1271.38964844 C-631.72538596 1273.46502781 -633.66361034 1275.54316405 -635.6015625 1277.62158203 C-641.26185098 1283.68477785 -646.91328368 1289.7313303 -652.83740234 1295.53930664 C-654.57285092 1297.30620294 -656.17840855 1299.12902409 -657.78125 1301.01611328 C-662.76477647 1306.74848711 -668.2186004 1311.99987205 -673.62890625 1317.32470703 C-674.43199219 1318.12005859 -675.23507812 1318.91541016 -676.0625 1319.73486328 C-676.77728516 1320.43804688 -677.49207031 1321.14123047 -678.22851562 1321.86572266 C-680.04567473 1323.75597746 -681.72326593 1325.64672731 -683.41040039 1327.64526367 C-689.27802206 1334.36318162 -695.70169405 1340.55863887 -702.01757812 1346.85009766 C-703.47543776 1348.30603577 -704.93306815 1349.76220347 -706.39048767 1351.21858215 C-709.51775754 1354.34270204 -712.64657156 1357.46526412 -715.77659607 1360.58662415 C-720.73016894 1365.52662525 -725.67988128 1370.47048242 -730.62902832 1375.41491699 C-742.02785945 1386.80172683 -753.4317046 1398.18351082 -764.83559418 1409.56525421 C-775.29126446 1420.0007233 -785.74586362 1430.43725954 -796.19641256 1440.87785769 C-801.11210935 1445.78858472 -806.03023123 1450.69686588 -810.95024872 1455.60326385 C-814.01465683 1458.66019071 -817.07697206 1461.71920763 -820.13873482 1464.7787838 C-821.55396227 1466.19214592 -822.97005058 1467.6046467 -824.38708305 1469.01619911 C-826.32871931 1470.95056518 -828.26718867 1472.88805329 -830.20495605 1474.82629395 C-830.75954262 1475.37728555 -831.31412919 1475.92827716 -831.88552141 1476.49596548 C-834.66060322 1479.27826182 -837.30890617 1482.11788633 -839.86677551 1485.10163879 C-844.56139828 1490.51892025 -849.66447668 1495.5310054 -854.73913574 1500.58752441 C-855.85822457 1501.70633282 -856.97709113 1502.82536356 -858.09575605 1503.94459581 C-861.15401476 1507.00314865 -864.21536722 1510.05858809 -867.27724624 1513.11351609 C-870.58518979 1516.41506339 -873.89020992 1519.71953489 -877.1955719 1523.02366638 C-882.91897898 1528.74419151 -888.64415764 1534.46293859 -894.37049866 1540.18052673 C-902.65787536 1548.45532938 -910.94199452 1556.73338718 -919.22523516 1565.01232988 C-932.67623355 1578.45626613 -946.12909827 1591.89833304 -959.58349609 1605.33886719 C-960.79048897 1606.54461835 -960.79048897 1606.54461835 -962.02186555 1607.77472812 C-968.55051256 1614.29663068 -975.07925001 1620.8184427 -981.60799122 1627.34025097 C-987.31503773 1633.04124478 -993.02204813 1638.74227474 -998.72900391 1644.44335938 C-999.53268282 1645.24621016 -1000.33636174 1646.04906095 -1001.16439456 1646.87624055 C-1014.56950515 1660.26766044 -1027.9726486 1673.66104753 -1041.37439203 1687.05583715 C-1049.63603612 1695.31300359 -1057.89945329 1703.56838798 -1066.16517365 1711.82147396 C-1071.82854312 1717.4764108 -1077.49013797 1723.1331202 -1083.15034616 1728.79122126 C-1086.41470614 1732.05423784 -1089.67988765 1735.31642128 -1092.94728279 1738.57639885 C-1095.94104696 1741.56339237 -1098.93247239 1744.55270788 -1101.92209488 1747.54384655 C-1103.001204 1748.62268527 -1104.08115751 1749.70068023 -1105.16206163 1750.77772051 C-1106.63777761 1752.24840782 -1108.11031472 1753.72221098 -1109.58216095 1755.19676971 C-1110.39894207 1756.01262905 -1111.2157232 1756.82848838 -1112.05725527 1757.66907072 C-1114.05136932 1759.75759489 -1115.93988634 1761.86482814 -1117.81847947 1764.05321176 C-1121.59894496 1768.38389963 -1125.58904588 1772.46276098 -1129.65957313 1776.51958025 C-1130.44164842 1777.30303596 -1131.22372371 1778.08649166 -1132.02949825 1778.89368845 C-1134.65258944 1781.52018754 -1137.27922636 1784.14311134 -1139.9058575 1786.76606995 C-1141.81641353 1788.67761742 -1143.72676993 1790.58936251 -1145.63688676 1792.50134865 C-1149.80929464 1796.67703708 -1153.98355878 1800.85086266 -1158.15903364 1805.02348417 C-1164.42802753 1811.28821514 -1170.69411577 1817.55584655 -1176.95965242 1823.82403497 C-1187.68658627 1834.55533931 -1198.41590051 1845.28426086 -1209.14648723 1856.01191247 C-1220.08287069 1866.94532456 -1231.01815472 1877.87983455 -1241.95211775 1888.8156672 C-1242.64491272 1889.50857926 -1243.33770768 1890.20149132 -1244.05149644 1890.91540071 C-1247.58870609 1894.45321786 -1251.12589838 1897.99105238 -1254.66308484 1901.52889272 C-1280.51503852 1927.38554888 -1306.36946764 1953.23972868 -1332.22513962 1979.09266663 C-1358.43871836 2005.30348841 -1384.65121097 2031.5153957 -1410.86237144 2057.72863579 C-1411.68843881 2058.55476767 -1412.51450618 2059.38089955 -1413.36560589 2060.23206573 C-1420.93577615 2067.80282751 -1428.50593522 2075.37360048 -1436.07608084 2082.94438689 C-1455.06063689 2101.93054732 -1474.04536718 2120.91653351 -1493.03021538 2139.9024018 C-1494.33528019 2141.20753697 -1494.33528019 2141.20753697 -1495.66670995 2142.53903849 C-1538.57753203 2185.45214055 -1581.49026299 2228.36333363 -1624.40318108 2271.27433968 C-1626.28350138 2273.15457635 -1628.16382169 2275.03481302 -1630.04414199 2276.91504969 C-1630.97603163 2277.84689788 -1631.90792128 2278.77874607 -1632.86805 2279.73883208 C-1645.15679225 2292.02702783 -1657.44552955 2304.31522852 -1669.73425364 2316.60344243 C-1671.14320313 2318.01233317 -1671.14320313 2318.01233317 -1672.58061623 2319.44968635 C-1716.08249905 2362.94976899 -1759.58326822 2406.45096521 -1803.08378983 2449.95240907 C-1807.82744475 2454.69616379 -1812.57110183 2459.43991637 -1817.31475867 2464.18366919 C-1831.61224621 2478.48144731 -1845.90973057 2492.77922861 -1860.20720836 2507.07701648 C-1903.80785108 2550.67860379 -1947.40866599 2594.2800189 -1991.00962925 2637.88128567 C-1991.98049307 2638.85215635 -1992.95135688 2639.82302704 -1993.95164082 2640.82331805 C-2056.84017796 2703.71229403 -2119.72948516 2766.6004999 -2182.61934566 2829.4881525 C-2184.12563613 2830.99439029 -2184.12563613 2830.99439029 -2185.6623567 2832.53105712 C-2219.2992954 2866.16681942 -2252.93627392 2899.8025419 -2286.57325651 2933.4382603 C-2388.29707404 3035.1582573 -2490.02002797 3136.87911767 -2671.67767306 3318.54279218 C-2705.30483532 3352.17121763 -2738.93200494 3385.79963574 -2772.55921078 3419.42801762 C-2773.56308524 3420.43192733 -2774.56695971 3421.43583704 -2775.60125461 3422.47016825 C-2838.45555032 3485.32666881 -2901.31045713 3548.18255822 -2964.16607761 3611.03773403 C-2965.13662844 3612.0082781 -2966.10717926 3612.97882217 -2967.10714071 3613.97877666 C-3010.68408147 3657.55541071 -3054.261188 3701.13187898 -3097.83844793 3744.70819384 C-3112.12998429 3758.99942065 -3126.42151304 3773.29065507 -3140.7130392 3787.58189207 C-3145.45405766 3792.32281453 -3150.19507679 3797.06373631 -3154.93609751 3801.80465651 C-3198.43927 3845.30690954 -3241.94211497 3888.80949001 -3285.44392085 3932.31310964 C-3286.38258758 3933.25181534 -3287.32125432 3934.19052104 -3288.28836549 3935.15767238 C-3300.56969242 3947.43951112 -3312.85100394 3959.72136527 -3325.13231359 3972.00322129 C-3326.06342935 3972.93437846 -3326.99454511 3973.86553564 -3327.9538765 3974.82490969 C-3329.83241127 3976.70352803 -3331.710946 3978.58214639 -3333.5894807 3980.4607648 C-3376.44050584 4023.31369433 -3419.29182916 4066.16632554 -3462.14496148 4109.0171479 C-3463.01390945 4109.88604918 -3463.88285742 4110.75495046 -3464.77813714 4111.65018209 C-3483.73264791 4130.60366286 -3502.68730342 4149.55699889 -3521.64210134 4168.51019248 C-3529.20099022 4176.06844544 -3536.75986143 4183.62671606 -3544.31872749 4191.18499184 C-3545.14328693 4192.00948586 -3545.96784636 4192.83397987 -3546.81739245 4193.68345856 C-3572.99875064 4219.86275608 -3599.17857458 4246.04358719 -3625.35751816 4272.22529927 C-3651.12205406 4297.99254631 -3676.88810345 4323.75827881 -3702.65637616 4349.52178891 C-3706.18149784 4353.04625941 -3709.70660215 4356.57074728 -3713.23169608 4360.09524553 C-3713.92183392 4360.78526539 -3714.61197176 4361.47528524 -3715.32302287 4362.18621479 C-3726.2265191 4373.08793788 -3737.12834324 4383.99133147 -3748.02946152 4394.89543233 C-3758.68207167 4405.55088892 -3769.33644128 4416.20458347 -3779.99272862 4426.85636262 C-3786.21615388 4433.0772615 -3792.43820875 4439.29952346 -3798.65824388 4445.52381203 C-3802.77524248 4449.64335502 -3806.8940394 4453.76109407 -3811.01432405 4457.8773504 C-3813.34790023 4460.20874637 -3815.68041503 4462.54118631 -3818.01126924 4464.87530405 C-3820.51447739 4467.38177627 -3823.02073505 4469.88515949 -3825.52778303 4472.38779015 C-3826.24151607 4473.10393489 -3826.95524912 4473.82007964 -3827.69061043 4474.55792574 C-3831.62565441 4478.4787218 -3835.65877391 4482.222607 -3839.87692317 4485.83788047 C-3842.73261578 4488.33070831 -3845.39887949 4491.00228826 -3848.06921387 4493.69055176 C-3848.66251983 4494.28370886 -3849.2558258 4494.87686597 -3849.86711073 4495.48799753 C-3851.82980849 4497.45138283 -3853.78892069 4499.4183053 -3855.74804688 4501.38525391 C-3857.16457656 4502.80370524 -3858.58133592 4504.22192723 -3859.99830627 4505.63993835 C-3863.03730286 4508.68208432 -3866.07474159 4511.72577408 -3869.11097717 4514.77067566 C-3873.91655694 4519.58983032 -3878.72599551 4524.40512158 -3883.53601074 4529.21984863 C-3893.74572523 4539.44064165 -3903.95120657 4549.66565671 -3914.15625 4559.89111328 C-3925.17509058 4570.93199484 -3936.19466045 4581.97214249 -3947.21912622 4593.00740767 C-3951.99604764 4597.78929789 -3956.77052313 4602.57361266 -3961.54311371 4607.35982513 C-3964.51700398 4610.34119825 -3967.4929857 4613.32047701 -3970.46952629 4616.29920387 C-3971.84418731 4617.67572974 -3973.21798722 4619.05311619 -3974.59083748 4620.43144798 C-3986.55563552 4632.4424938 -3986.55563552 4632.4424938 -3992.77983856 4637.74054718 C-3996.78477184 4641.26344572 -4000.49135847 4645.10588953 -4004.25 4648.88720703 C-4005.66935044 4650.30879897 -4007.08870101 4651.73039078 -4008.50805664 4653.15197754 C-4010.01845469 4654.66572542 -4011.52759723 4656.18071463 -4013.03637695 4657.69607544 C-4016.19528418 4660.86861791 -4019.35810313 4664.03724174 -4022.52148438 4667.20532227 C-4029.23605499 4673.9309467 -4035.94637791 4680.66080181 -4042.65625 4687.39111328 C-4049.90261216 4694.65954907 -4057.14972183 4701.92723024 -4064.40174103 4709.19002247 C-4067.53954784 4712.33278008 -4070.6749078 4715.47795161 -4073.80834961 4718.62506104 C-4075.29144938 4720.11385582 -4076.77571556 4721.60147606 -4078.26049805 4723.08859253 C-4080.06141619 4724.89235477 -4081.86055851 4726.69789274 -4083.6574707 4728.50564575 C-4087.89150313 4732.74004796 -4092.20056634 4736.79529864 -4096.73930359 4740.70001221 C-4100.07537041 4743.6430398 -4103.18998348 4746.80267082 -4106.32226562 4749.95947266 C-4107.04210129 4750.68076859 -4107.76193695 4751.40206451 -4108.50358582 4752.1452179 C-4110.05260107 4753.69801282 -4111.600461 4755.25196098 -4113.14726257 4756.80696106 C-4115.60085379 4759.27341819 -4118.05764468 4761.73664839 -4120.51525879 4764.19909668 C-4125.73174333 4769.42696035 -4130.94428725 4774.65874206 -4136.15625 4779.89111328 C-4142.20001947 4785.95854832 -4148.2454285 4792.02433067 -4154.29508972 4798.08589172 C-4156.70551275 4800.50275713 -4159.11288357 4802.92263415 -4161.5201416 4805.34265137 C-4163.01002295 4806.8361681 -4164.50004649 4808.32954302 -4165.99023438 4809.82275391 C-4166.98019661 4810.82046562 -4166.98019661 4810.82046562 -4167.99015808 4811.83833313 C-4171.78092774 4815.62952663 -4175.69333305 4819.2064197 -4179.74993134 4822.71063995 C-4182.63057637 4825.25000928 -4185.3358829 4827.94671242 -4188.03710938 4830.67431641 C-4188.62039505 4831.25906235 -4189.20368073 4831.84380829 -4189.80464172 4832.4462738 C-4191.05572919 4833.7011315 -4192.30566164 4834.95714164 -4193.55451965 4836.21421814 C-4195.53762034 4838.21022852 -4197.52395574 4840.20297034 -4199.5111084 4842.19494629 C-4203.7289885 4846.42418434 -4207.94291552 4850.65734731 -4212.15625 4854.89111328 C-4217.04351833 4859.80208118 -4221.93244714 4864.71137219 -4226.82563782 4869.61643982 C-4228.77073045 4871.56795579 -4230.71275666 4873.52248713 -4232.65466309 4875.47717285 C-4237.84190546 4880.68568872 -4243.01427337 4885.80729538 -4248.61486816 4890.57458496 C-4252.94963178 4894.43188433 -4256.98680551 4898.61530709 -4261.07295227 4902.73265076 C-4262.78719586 4904.45984004 -4264.50470302 4906.18372648 -4266.22302246 4907.90686035 C-4269.87027441 4911.565453 -4273.51356315 4915.22797609 -4277.15625 4918.89111328 C-4281.3826563 4923.14124697 -4285.61074022 4927.3896839 -4289.84309387 4931.63389587 C-4291.52228635 4933.31949618 -4293.19840076 4935.00811469 -4294.87438965 4936.69689941 C-4299.66586207 4941.51110008 -4304.4947442 4946.20449091 -4309.6607666 4950.6204834 C-4313.96290637 4954.43785278 -4317.95297767 4958.58875489 -4322 4962.67236328 C-4322.97801419 4963.65479706 -4323.95633251 4964.63692816 -4324.93493652 4965.61877441 C-4328.01156395 4968.70671899 -4331.08421436 4971.79860142 -4334.15625 4974.89111328 C-4337.72178903 4978.48041792 -4341.28902928 4982.06799836 -4344.86054993 4985.65135193 C-4346.27383629 4987.07102486 -4347.68402111 4988.49378327 -4349.09411621 4989.91662598 C-4353.48535623 4994.32445274 -4357.93269256 4998.56117984 -4362.6529541 5002.6126709 C-4366.64989144 5006.16098484 -4370.3659753 5010.00077569 -4374.125 5013.79736328 C-4375.00474487 5014.68089478 -4375.88448975 5015.56442627 -4376.79089355 5016.47473145 C-4379.58179506 5019.27776462 -4382.36954232 5022.08391244 -4385.15625 5024.89111328 C-4388.83023738 5028.59211878 -4392.50790602 5032.2894315 -4396.1875 5035.98486328 C-4397.43315735 5037.24296814 -4397.43315735 5037.24296814 -4398.70397949 5038.52648926 C-4402.90286938 5042.74283814 -4407.17854121 5046.76996477 -4411.68933105 5050.64904785 C-4415.29306388 5053.84081047 -4418.6480678 5057.28149614 -4422.03125 5060.70361328 C-4422.80001465 5061.47616455 -4423.5687793 5062.24871582 -4424.36083984 5063.04467773 C-4426.79510765 5065.4910551 -4429.22609106 5067.94065468 -4431.65625 5070.39111328 C-4434.86161178 5073.62325016 -4438.07039073 5076.85193863 -4441.28125 5080.07861328 C-4442.00231934 5080.80798096 -4442.72338867 5081.53734863 -4443.46630859 5082.28881836 C-4447.40559672 5086.24684759 -4451.44891404 5089.99211278 -4455.67773438 5093.63745117 C-4459.13073559 5096.69802715 -4462.35215476 5099.984803 -4465.59375 5103.26611328 C-4466.68030884 5104.35835205 -4466.68030884 5104.35835205 -4467.78881836 5105.47265625 C-4470.08043303 5107.77636974 -4472.36875652 5110.08330802 -4474.65625 5112.39111328 C-4477.67410081 5115.43576107 -4480.69538416 5118.47694295 -4483.71875 5121.51611328 C-4484.39607178 5122.2017334 -4485.07339355 5122.88735352 -4485.77124023 5123.59375 C-4489.61596903 5127.45788944 -4493.57620567 5131.1020885 -4497.70263672 5134.66235352 C-4500.91854112 5137.50811946 -4503.92264206 5140.55410572 -4506.9375 5143.60986328 C-4507.59528442 5144.27143433 -4508.25306885 5144.93300537 -4508.93078613 5145.61462402 C-4511.00842274 5147.70434063 -4513.08275627 5149.79728643 -4515.15625 5151.89111328 C-4517.8928315 5154.65453028 -4520.63287263 5157.4144505 -4523.375 5160.17236328 C-4523.98670044 5160.79236206 -4524.59840088 5161.41236084 -4525.2286377 5162.05114746 C-4528.92472103 5165.76777712 -4532.75417131 5169.25336766 -4536.71984863 5172.67956543 C-4539.70042635 5175.31404064 -4542.49070776 5178.12066534 -4545.28125 5180.95361328 C-4545.87244629 5181.54859619 -4546.46364258 5182.1435791 -4547.07275391 5182.7565918 C-4548.936415 5184.63230985 -4550.79675842 5186.51126231 -4552.65625 5188.39111328 C-4566.83969747 5202.72985397 -4566.83969747 5202.72985397 -4573.03662109 5207.98974609 C-4575.48895786 5210.11160516 -4577.7175772 5212.43441642 -4579.96875 5214.76611328 C-4584.35515971 5219.23072851 -4588.97049619 5223.26398173 -4593.8671875 5227.16064453 C-4596.70450579 5229.42970439 -4599.45805363 5231.77969118 -4602.21875 5234.14111328 C-4657.94539314 5280.59196679 -4729.43532347 5314.59372094 -4800.65625 5328.39111328 C-4802.26862549 5328.70653076 -4802.26862549 5328.70653076 -4803.91357422 5329.02832031 C-4834.15733604 5334.67805721 -4867.59052189 5335.39703042 -4897.65625 5328.39111328 C-4899.09073486 5328.06965332 -4899.09073486 5328.06965332 -4900.55419922 5327.74169922 C-4920.85539068 5323.11201672 -4940.3458847 5316.33288763 -4958.65625 5306.39111328 C-4959.32881836 5306.03404297 -4960.00138672 5305.67697266 -4960.69433594 5305.30908203 C-4969.96789727 5300.37828287 -4978.43298381 5294.96972623 -4986.65625 5288.39111328 C-4987.50960937 5287.74142578 -4988.36296875 5287.09173828 -4989.2421875 5286.42236328 C-5026.36836457 5257.43495776 -5049.61913693 5214.90311758 -5058.90625 5169.14111328 C-5059.05723145 5168.39901611 -5059.20821289 5167.65691895 -5059.36376953 5166.89233398 C-5059.8404232 5164.39755987 -5060.2580225 5161.89966064 -5060.65625 5159.39111328 C-5060.83502686 5158.27607422 -5061.01380371 5157.16103516 -5061.19799805 5156.01220703 C-5062.87549179 5144.30785869 -5063.01252895 5132.7003959 -5062.96875 5120.89111328 C-5062.96692719 5119.8726532 -5062.96510437 5118.85419312 -5062.96322632 5117.80487061 C-5062.91795911 5102.79001909 -5062.46924463 5088.1797388 -5059.65625 5073.39111328 C-5059.47932617 5072.42238281 -5059.30240234 5071.45365234 -5059.12011719 5070.45556641 C-5046.87036102 5004.40420413 -5015.62451347 4944.64873649 -4972.65625 4893.39111328 C-4972.12580078 4892.75625 -4971.59535156 4892.12138672 -4971.04882812 4891.46728516 C-4965.77829794 4885.17748476 -4960.48634624 4879.01065083 -4954.57328939 4873.30892992 C-4952.7678872 4871.50279574 -4951.10745483 4869.64174097 -4949.45236969 4867.69823456 C-4945.56322078 4863.22335265 -4941.43167817 4859.03306422 -4937.23083496 4854.85217285 C-4936.40899892 4854.03018795 -4935.58716289 4853.20820306 -4934.74042273 4852.36130953 C-4932.47983957 4850.10129704 -4930.21704153 4847.84353073 -4927.95326304 4845.58671975 C-4925.50421411 4843.14408572 -4923.05810634 4840.69850939 -4920.61164856 4838.25328064 C-4916.37790769 4834.02241759 -4912.14239775 4829.79333241 -4907.90571594 4825.56541443 C-4901.77216581 4819.44445798 -4895.641891 4813.32022944 -4889.51248831 4807.19512016 C-4879.55549302 4797.24518218 -4869.59663156 4787.29711447 -4859.63623047 4777.35058594 C-4859.04091158 4776.75609486 -4858.4455927 4776.16160379 -4857.83223385 4775.54909784 C-4853.00238672 4770.72599483 -4848.17244893 4765.90298261 -4843.34250736 4761.07997417 C-4839.12038569 4756.86390544 -4834.89830024 4752.64780045 -4830.67626953 4748.43164062 C-4830.08168031 4747.83787953 -4829.48709108 4747.24411843 -4828.874484 4746.63236457 C-4818.949807 4736.72138779 -4809.02710449 4726.80843644 -4799.10580111 4716.89408255 C-4792.99382157 4710.78657514 -4786.88007356 4704.68084838 -4780.76400721 4698.57743347 C-4776.5723662 4694.39423795 -4772.38251156 4690.20925886 -4768.19403923 4686.02289069 C-4765.78029164 4683.61048373 -4763.36573226 4681.1989043 -4760.94893837 4678.78954887 C-4758.32418725 4676.17203412 -4755.7025627 4673.55142609 -4753.08166504 4670.93005371 C-4752.32474916 4670.17673279 -4751.56783328 4669.42341187 -4750.78798056 4668.64726305 C-4750.0781976 4667.93610574 -4749.36841464 4667.22494843 -4748.63712311 4666.49224091 C-4748.03298537 4665.88902496 -4747.42884763 4665.28580901 -4746.80640268 4664.66431379 C-4744.98104414 4662.73449457 -4743.24937494 4660.76685718 -4741.51845774 4658.75346485 C-4737.74660083 4654.43615758 -4733.77016416 4650.3660087 -4729.71077353 4646.32028764 C-4728.54783111 4645.15524175 -4728.54783111 4645.15524175 -4727.3613949 4643.96665957 C-4724.76331315 4641.36509859 -4722.16168874 4638.76711004 -4719.56006718 4636.16908932 C-4717.6696189 4634.27759779 -4715.77937005 4632.38590886 -4713.88936093 4630.49397871 C-4709.76701988 4626.36824912 -4705.64282614 4622.24437882 -4701.51741643 4618.12171774 C-4695.34152627 4611.94992381 -4689.16852719 4605.77524415 -4682.99608423 4599.6000029 C-4672.4759516 4589.07527057 -4661.95344554 4578.55291408 -4651.42964745 4568.031847 C-4640.76434913 4557.36929956 -4630.10013654 4546.70566799 -4619.43724823 4536.04071045 C-4618.42717579 4535.03044425 -4618.42717579 4535.03044425 -4617.39669784 4533.99976862 C-4614.65414105 4531.25667857 -4611.91159198 4528.51358079 -4609.16905271 4525.77047322 C-4583.62126031 4500.21739062 -4558.07100207 4474.66677493 -4532.51916695 4449.11773491 C-4531.38329799 4447.98199015 -4531.38329799 4447.98199015 -4530.22448219 4446.82330105 C-4529.466027 4446.06492879 -4528.70757182 4445.30655653 -4527.92613314 4444.5252033 C-4504.83065725 4421.43224937 -4481.73611597 4398.33836127 -4458.64249992 4375.24354744 C-4457.09677179 4373.69774182 -4455.55104349 4372.15193637 -4454.00531503 4370.60613107 C-4447.79386264 4364.39436823 -4441.58241437 4358.18260129 -4435.37097207 4351.97082836 C-4418.00681108 4334.6057503 -4400.64247683 4317.24084549 -4383.27800655 4299.8760767 C-4382.48723282 4299.08528932 -4381.69645909 4298.29450195 -4380.88172252 4297.47975132 C-4355.67966798 4272.27728742 -4330.47684516 4247.07559194 -4305.27349949 4221.87441921 C-4304.45590651 4221.05689648 -4303.63831352 4220.23937374 -4302.79594499 4219.39707759 C-4289.51829229 4206.12056988 -4276.24060237 4192.8440994 -4262.96290929 4179.56763206 C-4210.30019858 4126.90977778 -4157.64002942 4074.24938322 -4104.98217773 4021.58666992 C-4091.71244835 4008.31571937 -4078.44271391 3995.04477389 -4065.17294407 3981.77386379 C-4064.35590501 3980.95675429 -4063.53886595 3980.13964478 -4062.69706813 3979.29777438 C-4037.52244615 3954.12099661 -4012.3472037 3928.94483941 -3987.17128658 3903.76935673 C-3985.98597373 3902.58406425 -3985.98597373 3902.58406425 -3984.77671516 3901.37482647 C-3967.431316 3884.02973977 -3950.08575627 3866.68481365 -3932.74005171 3849.34003236 C-3926.53379233 3843.13410213 -3920.32754099 3836.92816386 -3914.12129194 3830.7222233 C-3912.57730161 3829.17831036 -3911.0333106 3827.63439808 -3909.48931893 3826.09048648 C-3886.39991139 3803.00227314 -3863.31161031 3779.91295384 -3840.22406224 3756.82288109 C-3839.46689906 3756.06563512 -3838.70973589 3755.30838915 -3837.92962837 3754.52819633 C-3837.17385853 3753.77234381 -3836.41808869 3753.01649129 -3835.63941673 3752.23773414 C-3810.16492747 3726.76048841 -3784.68855598 3701.28512621 -3759.21004934 3675.81189805 C-3756.47557657 3673.07797765 -3753.74111164 3670.34404941 -3751.00665283 3667.61011505 C-3750.33555759 3666.93915002 -3749.66446236 3666.26818499 -3748.9730309 3665.57688769 C-3738.33562786 3654.94145904 -3727.6999015 3644.3043553 -3717.06486602 3633.66655923 C-3706.6140774 3623.21312895 -3696.16151013 3612.76148001 -3685.70703214 3602.31173944 C-3679.57388333 3596.18126369 -3673.44210866 3590.04942117 -3667.31233996 3583.91556566 C-3663.243574 3579.84435973 -3659.17300487 3575.77496272 -3655.10095192 3571.70704448 C-3652.79118763 3569.39952404 -3650.48248547 3567.09095905 -3648.17544194 3564.78071798 C-3645.69495006 3562.2970311 -3643.2114068 3559.81643549 -3640.72707564 3557.33658975 C-3640.01949873 3556.6266221 -3639.31192181 3555.91665445 -3638.58290318 3555.18517262 C-3635.41378306 3552.02770777 -3632.21256941 3548.9678674 -3628.81815374 3546.05301702 C-3623.63134294 3541.57157942 -3618.83321047 3536.70571735 -3613.99496454 3531.85517699 C-3612.92725112 3530.78845633 -3611.85931872 3529.72195483 -3610.79118907 3528.65565097 C-3607.85607766 3525.72428964 -3604.92408097 3522.78983023 -3601.99258348 3519.85485542 C-3598.7911111 3516.65069623 -3595.58672766 3513.44945047 -3592.38271901 3510.2478278 C-3586.74586938 3504.61437213 -3581.11088548 3498.97905555 -3575.47710519 3493.34253044 C-3567.04310431 3484.90443898 -3558.60622386 3476.469231 -3550.16877727 3468.03458515 C-3535.78960858 3453.66001968 -3521.41281978 3439.2830761 -3507.03731728 3424.90484428 C-3492.46593039 3410.33070774 -3477.89346086 3395.75765499 -3463.319664 3381.18592834 C-3462.3997371 3380.26613062 -3461.4798102 3379.34633289 -3460.53200672 3378.3986625 C-3456.31377929 3374.18103545 -3452.09554003 3369.96342025 -3447.87729242 3365.74581338 C-3437.78752263 3355.65756977 -3427.69793359 3345.5691454 -3417.60843956 3335.48062599 C-3417.12447814 3334.99671146 -3416.64051671 3334.51279693 -3416.14188978 3334.01421833 C-3392.28116483 3310.15577256 -3368.42234795 3286.29541894 -3344.5637188 3262.4348774 C-3343.51848943 3261.38956439 -3342.47326006 3260.34425139 -3341.42803069 3259.2989384 C-3340.65100296 3258.52184848 -3340.65100296 3258.52184848 -3339.85827769 3257.72905977 C-3333.02706584 3250.89730141 -3326.19584904 3244.065548 -3319.36461902 3237.2338078 C-3318.84245525 3236.71160487 -3318.32029147 3236.18940194 -3317.78230456 3235.65137467 C-3293.59182303 3211.45909242 -3269.4002273 3187.26792447 -3245.20838437 3163.07700361 C-3242.56975905 3160.43847809 -3239.93113589 3157.79995043 -3237.29251249 3155.161423 C-3229.33950897 3147.20871007 -3221.38650228 3139.25600032 -3213.43348902 3131.30329714 C-3189.18096185 3107.05171452 -3164.92860684 3082.79995974 -3140.67640018 3058.5480566 C-3139.86638612 3057.73805284 -3139.86638612 3057.73805284 -3139.04000814 3056.91168537 C-3104.06410059 3021.9362166 -3069.08896301 2986.95997798 -3034.11437893 2951.98318577 C-3033.55598116 2951.42475288 -3032.99758338 2950.86631999 -3032.42226447 2950.29096489 C-3013.71829949 2931.58582354 -2995.01437436 2912.88064235 -2976.3104533 2894.17545709 C-2919.74800415 2837.60918747 -2863.18469178 2781.0437815 -2762.16545753 2680.03057665 C-2743.46501388 2661.3313962 -2724.76457757 2642.6322084 -2706.06417751 2623.93298435 C-2705.50590211 2623.37474419 -2704.9476267 2622.81650403 -2704.37243386 2622.2413475 C-2669.41407938 2587.28519811 -2634.45633632 2552.32843737 -2599.49930668 2517.3709631 C-2598.95948269 2516.83113235 -2598.4196587 2516.2913016 -2597.8634764 2515.73511235 C-2573.62507295 2491.49640218 -2549.38683529 2467.25752623 -2525.148751 2443.01849691 C-2517.1995403 2435.06897666 -2509.25032199 2427.11946402 -2501.30110109 2419.16995396 C-2498.66409509 2416.53285196 -2496.02708977 2413.89574929 -2493.39008603 2411.25864503 C-2469.19847375 2387.06611348 -2445.00653452 2362.87390903 -2420.81355548 2338.68274426 C-2420.29168325 2338.16091101 -2419.76981102 2337.63907775 -2419.23212449 2337.10143137 C-2412.40423552 2330.27405421 -2405.57633114 2323.44669246 -2398.74842489 2316.61933259 C-2398.23077297 2316.10172208 -2397.71312104 2315.58411158 -2397.1797827 2315.0508159 C-2396.13541747 2314.00653423 -2395.0910522 2312.9622526 -2394.0466869 2311.917971 C-2370.219235 2288.09242386 -2346.39208223 2264.26657783 -2322.56673729 2240.43892372 C-2322.0834589 2239.95559864 -2321.60018052 2239.47227356 -2321.10225733 2238.97430227 C-2311.03035193 2228.9014128 -2300.95856688 2218.82840301 -2290.88693451 2208.75524056 C-2286.21178233 2204.07937912 -2281.53661346 2199.40353437 -2276.86143494 2194.72769928 C-2275.94494083 2193.81107497 -2275.02844673 2192.89445066 -2274.08418008 2191.95004986 C-2259.54915746 2177.41305183 -2245.01245798 2162.87773182 -2230.47506795 2148.3431013 C-2216.1941486 2134.06482178 -2201.91500671 2119.78476676 -2187.63777779 2105.50279706 C-2179.25878495 2097.12112836 -2170.87841914 2088.74083803 -2162.49604752 2080.36254838 C-2156.93586723 2074.80480399 -2151.37748777 2069.24526299 -2145.8205963 2063.6842303 C-2142.66622631 2060.52761153 -2139.51107506 2057.37178478 -2136.35371051 2054.21816104 C-2133.48851521 2051.3563312 -2130.62563335 2048.49220802 -2127.76457085 2045.62624667 C-2126.73863139 2044.59935239 -2125.71185924 2043.57328915 -2124.68414064 2042.54817545 C-2119.74987184 2037.62554889 -2114.95613664 2032.66348937 -2110.41513401 2027.37642879 C-2106.89861298 2023.40720529 -2103.10446604 2019.70467669 -2099.35027266 2015.96208811 C-2098.42763488 2015.03829648 -2097.50499711 2014.11450485 -2096.55440062 2013.16271954 C-2093.99726682 2010.60253 -2091.43703892 2008.04545456 -2088.8762873 2005.48888434 C-2086.07907721 2002.69512675 -2083.28479103 1999.89844718 -2080.490125 1997.10214514 C-2075.57416423 1992.18410974 -2070.65634493 1987.26793893 -2065.73731476 1982.35297364 C-2058.37334384 1974.99506662 -2051.01227504 1967.63426125 -2043.65177448 1960.27288285 C-2031.10738295 1947.72716073 -2018.56063024 1935.18380242 -2006.01260185 1922.64171791 C-1993.29450498 1909.92962362 -1980.57750468 1897.21643383 -1967.86184883 1884.50189781 C-1967.05905926 1883.69918003 -1966.25626969 1882.89646225 -1965.42915317 1882.06941969 C-1961.33579152 1877.97641292 -1957.2424488 1873.88338722 -1953.14911361 1869.790354 C-1924.42074306 1841.06416387 -1895.69024201 1812.34010543 -1866.95847136 1783.6173161 C-1836.68458822 1753.35289562 -1806.41189791 1723.08728282 -1776.14097595 1692.81990051 C-1775.22929937 1691.90833108 -1774.31762278 1690.99676165 -1773.37831963 1690.0575689 C-1763.19182319 1679.87226349 -1753.00536628 1669.68691855 -1742.81892556 1659.50155741 C-1724.45373307 1641.13831406 -1706.08838504 1622.77522626 -1687.72299073 1604.41218476 C-1686.29486596 1602.98424285 -1684.8667415 1601.55630063 -1683.43861707 1600.12835839 C-1638.56253736 1555.25801372 -1593.68493589 1510.38919118 -1548.80698788 1465.52071516 C-1545.8288522 1462.54320803 -1542.85071749 1459.56569994 -1539.87258285 1456.58819178 C-1509.46779977 1426.18980702 -1479.06292816 1395.79151081 -1448.65804117 1365.39322997 C-1418.75543215 1335.49711783 -1388.85284409 1305.60098472 -1358.95033832 1275.7047693 C-1355.97261194 1272.72766931 -1352.99488497 1269.7505699 -1350.01715755 1266.77347096 C-1305.15908763 1221.92486681 -1260.30141765 1177.07586273 -1215.44521924 1132.22538674 C-1214.01763346 1130.79798312 -1212.59004736 1129.37057982 -1211.16246121 1127.94317656 C-1192.34242465 1109.1255482 -1173.522456 1090.30785193 -1154.70262624 1071.49001674 C-1144.52562097 1061.31409105 -1134.34858762 1051.13819344 -1124.17152405 1040.96232605 C-1123.26102131 1040.05192978 -1122.35051857 1039.14153351 -1121.41242484 1038.20354947 C-1091.15243851 1007.94713789 -1060.89045275 977.69272692 -1030.62752415 947.43925826 C-1001.98071302 918.80138262 -973.33542693 890.16198239 -944.69202669 861.52069518 C-940.61158483 857.44055639 -936.53112394 853.36043663 -932.45065117 849.28032875 C-931.65074382 848.48049185 -930.85083648 847.68065495 -930.02668952 846.85658057 C-917.3433453 834.17444905 -904.65830828 821.49401211 -891.97256622 808.81427916 C-879.50905361 796.35660367 -867.04730702 783.89716395 -854.58745564 771.43582657 C-847.27610877 764.1237172 -839.96338062 756.81299572 -832.6486308 749.50429051 C-827.7954312 744.65483062 -822.94403641 739.80357027 -818.0941261 734.9508208 C-815.34185029 732.19703662 -812.58879601 729.4440435 -809.83351717 726.6932637 C-806.87371044 723.73825602 -803.91778682 720.77939417 -800.96222734 717.82013845 C-800.11237986 716.97291798 -799.26253238 716.12569751 -798.38693194 715.25280369 C-794.161342 711.01520711 -790.08470427 706.71276353 -786.20213361 702.15752451 C-782.97474297 698.46973131 -779.40826309 695.10401893 -775.90625 691.68017578 C-772.2482326 688.07114968 -768.81752649 684.33811343 -765.45996094 680.44873047 C-762.33147421 676.87985037 -759.04904446 673.45699424 -755.78125 670.01611328 C-750.71786483 664.6609771 -745.69715265 659.27985931 -740.79296875 653.77783203 C-738.27082718 650.96059528 -735.71532181 648.17473433 -733.15625 645.39111328 C-728.28663446 640.09006615 -723.4620176 634.75006276 -718.65625 629.39111328 C-713.38541984 623.51356886 -708.08393328 617.66611501 -702.74267578 611.85253906 C-699.86231171 608.71480215 -697.00108753 605.5610751 -694.15625 602.39111328 C-689.49630144 597.20049442 -684.78266725 592.05998486 -680.06347656 586.92333984 C-677.75916448 584.41434217 -675.45783843 581.9026092 -673.15625 579.39111328 C-672.25392103 578.40672474 -671.35157721 577.4223498 -670.44921875 576.43798828 C-669.77125244 575.69838867 -669.77125244 575.69838867 -669.07958984 574.94384766 C-664.93847656 570.42626953 -660.79736328 565.90869141 -656.65625 561.39111328 C-675.7583058 562.11510968 -694.82009369 563.40196321 -713.8909937 564.68029551 C-718.65425366 564.99905679 -723.41769411 565.31510038 -728.18111134 565.6315012 C-736.47142165 566.18253546 -744.7616179 566.73525964 -753.05173874 567.28913689 C-765.24627153 568.10386734 -777.44098137 568.91592345 -789.63572979 569.72741931 C-811.11894592 571.15709487 -832.6019913 572.58932261 -854.0849613 574.02269148 C-872.77147996 575.26947096 -891.45805317 576.51542893 -910.14468384 577.76052856 C-912.00140896 577.88424423 -912.00140896 577.88424423 -913.89564369 578.01045921 C-920.15531331 578.42754428 -926.41498392 578.84461467 -932.67465508 579.26167667 C-945.19542636 580.09589926 -957.71619141 580.93021515 -970.23695374 581.76457214 C-971.47422892 581.84702096 -972.7115041 581.92946977 -973.98627248 582.01441703 C-991.48727161 583.18065576 -1008.98823859 584.34737592 -1026.48918145 585.51445872 C-1081.08502112 589.1552759 -1135.68122296 592.79050318 -1190.2783432 596.41206741 C-1321.12736745 605.08096227 -1321.12736745 605.08096227 -1584.15730381 623.22312832 C-1595.63571413 624.0365799 -1607.11439958 624.84601031 -1618.59333932 625.65195501 C-1705.86297086 631.78002893 -1793.10264727 638.29915351 -2108.88066882 662.40994311 C-2118.59421263 663.15600173 -2128.30778241 663.90172133 -2138.02136709 664.64724761 C-2213.00121027 670.40216114 -2287.97812903 676.19483007 -2570.44140625 698.25830078 C-2571.60676145 698.34962039 -2571.60676145 698.34962039 -2572.79565919 698.44278485 C-2627.17457344 702.70404548 -2681.55336734 706.96684159 -2735.93215036 711.22977638 C-2896.28317127 723.80022519 -2896.28317127 723.80022519 -3304.27099609 755.56347656 C-3305.23979073 755.6382168 -3306.20858537 755.71295705 -3307.20673743 755.78996214 C-3325.95801234 757.23652623 -3344.70935373 758.6822262 -3363.46084581 760.12597259 C-3373.07614157 760.86629672 -3382.69141049 761.60696856 -3392.30664062 762.34814453 C-3393.56946539 762.44548625 -3393.56946539 762.44548625 -3394.85780177 762.54479447 C-3422.00164822 764.63740946 -3449.14327432 766.75725557 -3476.28348923 768.89642239 C-3479.07015623 769.11605687 -3481.85682435 769.3356772 -3484.64349365 769.55528259 C-3485.32376502 769.60889625 -3486.00403639 769.6625099 -3486.70492205 769.71774822 C-3503.90597382 771.07314058 -3521.10837864 772.41113537 -3538.3111763 773.7441721 C-3549.27855438 774.59463367 -3560.2452285 775.45223156 -3571.21008301 776.33468628 C-3607.14419319 779.22357725 -3642.9630764 781.93340075 -3679.03125 781.95751953 C-3680.29049286 781.96048475 -3681.54973572 781.96344997 -3682.84713745 781.96650505 C-3754.0137601 781.93870027 -3830.57184572 766.08509827 -3885.65625 718.39111328 C-3886.88021484 717.3334375 -3886.88021484 717.3334375 -3888.12890625 716.25439453 C-3926.56592157 682.3250482 -3949.87034523 637.14947697 -3958.90625 586.82861328 C-3959.13308472 585.57455688 -3959.13308472 585.57455688 -3959.36450195 584.29516602 C-3962.43412563 565.86875762 -3963.03057468 547.40989739 -3962.96875 528.76611328 C-3962.96692719 527.62258392 -3962.96510437 526.47905457 -3962.96322632 525.3008728 C-3962.91814032 508.49143062 -3962.53829764 491.99215365 -3959.65625 475.39111328 C-3959.47932617 474.34117187 -3959.30240234 473.29123047 -3959.12011719 472.20947266 C-3956.65738003 457.96047531 -3953.2738449 444.09417051 -3948.65625 430.39111328 C-3948.42325195 429.69759766 -3948.19025391 429.00408203 -3947.95019531 428.28955078 C-3928.42683694 371.23398161 -3886.0990951 330.26397609 -3832.86865234 303.92578125 C-3791.08760279 283.96562944 -3745.25384905 274.31447603 -3699.44340515 269.4256134 C-3698.64909533 269.34017762 -3697.85478552 269.25474184 -3697.0364057 269.16671709 C-3680.07199152 267.35103068 -3663.08530759 265.97027039 -3646.07200225 264.70889165 C-3641.7794097 264.38922663 -3637.48736362 264.06235688 -3633.19523525 263.73652935 C-3625.69505918 263.1681282 -3618.19456309 262.60412465 -3610.69382477 262.04319382 C-3599.49788616 261.20591644 -3588.30248141 260.36165376 -3577.10715877 259.51618531 C-3556.90721393 257.99093716 -3536.70674441 256.47273077 -3516.50604926 254.95745602 C-3498.44312975 253.60251603 -3480.38040359 252.24502953 -3462.31784058 250.88534546 C-3459.8529591 250.69980714 -3457.38807758 250.51426938 -3454.92319602 250.32873219 C-3451.19918318 250.0484154 -3447.47517038 249.7680981 -3443.75115792 249.48777629 C-3385.37453294 245.09365707 -3326.99684621 240.71372913 -3268.61887435 236.33754959 C-3249.61574376 234.91301755 -3230.61266426 233.48780548 -3211.60961914 232.06213379 C-3113.98429865 224.738106 -3016.35809022 217.42595937 -2431.28125 173.95361328 C-2430.50292928 173.89605955 -2429.72460856 173.83850581 -2428.92270236 173.77920803 C-2346.03460122 167.64996894 -2263.14603591 161.52701298 -1919.09935522 136.1586327 C-1888.74131217 133.92188427 -1858.38328481 131.68492308 -1828.02527268 129.44775511 C-1808.52629804 128.01082067 -1789.02731978 126.57393546 -1769.52834112 125.13705577 C-1763.43005221 124.68767269 -1757.3317635 124.23828705 -1751.23347521 123.78889568 C-1697.33525952 119.81706396 -1643.43698468 115.84604006 -1589.5384338 111.87875927 C-1429.65114633 100.11308734 -1429.65114633 100.11308734 -968.81860131 65.63200438 C-965.70029657 65.39446851 -962.58198833 65.15697864 -959.46367884 64.91950512 C-919.40349886 61.86869654 -879.34405234 58.80836659 -839.28524578 55.73958007 C-756.76807397 49.41824369 -674.25040524 43.09869114 -102.29132593 4.2535584 C-93.60748863 3.74579633 -84.9245975 3.22580013 -76.24260235 2.68723011 C-50.81563822 1.11236399 -25.48025785 -0.11435593 0 0 Z " fill="#FFFFFF" transform="translate(5062.65625,-0.39111328125)"/>
</svg>
