<?xml version="1.0" encoding="UTF-8"?>
<svg version="1.1" xmlns="http://www.w3.org/2000/svg" width="600" height="600">
<path d="M0 0 C1.12277344 0.19867676 2.24554688 0.39735352 3.40234375 0.60205078 C55.11433426 9.97169075 104.65805023 29.03903645 146 62 C146.66580078 62.5244873 147.33160156 63.04897461 148.01757812 63.58935547 C157.40238507 70.99267829 166.35508646 78.74636968 175 87 C176.01126953 87.94939453 176.01126953 87.94939453 177.04296875 88.91796875 C182.18136761 93.86823401 186.55529435 99.43167276 191 105 C191.86499989 106.05151034 192.73090715 107.1022748 193.59765625 108.15234375 C212.20486968 130.93241148 225.62180929 157.21799142 235 185 C235.39590332 186.16305664 235.39590332 186.16305664 235.79980469 187.34960938 C241.62006243 204.77110961 245.05613714 223.51931016 245.23828125 241.8984375 C245.25297203 243.13494804 245.25297203 243.13494804 245.26795959 244.3964386 C245.85769857 306.98400135 226.6488177 363.3984038 183.95703125 409.859375 C182.19407494 411.78771843 180.50046051 413.7562799 178.8125 415.75 C171.47072204 424.17246023 163.38115471 432.1464426 154.85546875 439.36328125 C152.63836416 441.31900088 150.57624088 443.3955589 148.5 445.5 C145.21145472 448.82769463 141.83618376 451.95336441 138.28515625 454.99609375 C135.93521916 457.05680781 133.64966874 459.17474187 131.36572266 461.30786133 C125.96074678 466.35507403 120.44939205 471.15657508 114.6796875 475.7890625 C111.86746685 478.1093495 109.18202737 480.53071134 106.5 483 C101.1703211 487.8936826 95.63303512 492.46207844 90 497 C88.73493201 498.03294233 87.4706572 499.06685658 86.20703125 500.1015625 C78.54802831 506.36667139 70.83113445 512.52816134 62.95117188 518.51416016 C60.63469729 520.27818222 58.32527135 522.05126629 56.015625 523.82421875 C47.27366991 530.52480063 38.51501194 537.17511773 29.5078125 543.515625 C26.89890049 545.35314112 24.31646016 547.22363721 21.7421875 549.109375 C5.76629817 560.80069549 -10.69668356 571.37586857 -28 581 C-28.87269531 581.4856543 -29.74539063 581.97130859 -30.64453125 582.47167969 C-61.96450754 599.75205734 -61.96450754 599.75205734 -76 597 C-78.50187721 595.09591646 -78.98130279 594.05609164 -80 591 C-80.73667776 580.07060047 -79.8168057 569.66125382 -78 558.875 C-74.19283251 538.84134679 -74.19283251 538.84134679 -80 520 C-80.8353125 518.63875 -80.8353125 518.63875 -81.6875 517.25 C-89.0213686 510.11434406 -97.77840831 508.83136012 -107.52008057 507.46005249 C-111.55759369 506.88560446 -115.58348469 506.24017291 -119.609375 505.58984375 C-120.41452545 505.45989517 -121.2196759 505.32994659 -122.04922485 505.19606018 C-192.24697676 493.61078236 -266.04203665 452.31381891 -308.18359375 394.0078125 C-309.12519699 392.67384785 -310.06408671 391.33796288 -311 390 C-311.4448877 389.37319336 -311.88977539 388.74638672 -312.34814453 388.10058594 C-332.15598293 360.04378171 -345.10675702 328.57300595 -352 295 C-352.2477417 293.86812256 -352.2477417 293.86812256 -352.50048828 292.71337891 C-357.90978406 267.22200264 -357.55407665 236.42412455 -352 211 C-351.82839355 210.15888672 -351.65678711 209.31777344 -351.47998047 208.45117188 C-342.52403678 164.94401381 -320.70279816 125.89354504 -290.4296875 93.6171875 C-288.48217645 91.51938621 -286.62911965 89.39690227 -284.8125 87.1875 C-282.20411614 84.10486453 -279.30105822 81.52454088 -276.22265625 78.91796875 C-274.69840856 77.6026689 -273.20718263 76.24840363 -271.74609375 74.86328125 C-257.10506999 61.0012791 -240.48782889 49.91420262 -223 40 C-222.14212891 39.5040332 -221.28425781 39.00806641 -220.40039062 38.49707031 C-180.07573748 15.22594913 -136.08455709 2.94493974 -90 -2 C-89.042146 -2.1045752 -88.08429199 -2.20915039 -87.09741211 -2.31689453 C-58.81291172 -4.94527716 -27.98693378 -5.1031221 0 0 Z M-206.4375 248.9375 C-211.10918096 258.09399468 -212.44269349 267.12933606 -209.875 277.125 C-206.99818619 285.70166922 -200.69269921 292.97997482 -192.6953125 297.22265625 C-183.21302229 301.55963817 -174.40729452 302.4093401 -164.37890625 299.03515625 C-155.52747739 295.18354928 -148.20841285 287.64091029 -144.5625 278.75 C-141.34364737 268.66147489 -142.35126199 259.44320448 -147 250 C-151.50356226 241.7748445 -158.93077713 237.11985684 -167.4375 233.5625 C-184.29076244 230.90145856 -195.61408008 235.89389137 -206.4375 248.9375 Z M-80 243 C-87.23284716 252.46273679 -90.14846118 261.09776591 -89 273 C-86.93415298 283.17672292 -80.89105656 289.94146371 -73.0625 296.4375 C-64.81150787 300.64718986 -56.3191913 302.56433127 -47.20703125 300.30859375 C-37.5534726 297.12624821 -30.16488208 291.84753468 -25 283 C-20.33671232 273.34033265 -19.53591823 264.56999185 -22.96484375 254.37890625 C-26.81645072 245.52747739 -34.35908971 238.20841285 -43.25 234.5625 C-56.15174955 230.44605781 -70.3758682 233.13221929 -80 243 Z M40.28125 244.8828125 C34.30494727 252.35319091 31.29303728 260.89723393 32.25 270.51171875 C33.921699 280.25832097 38.21295873 288.8390695 46.36328125 294.69921875 C54.64036471 299.88652599 62.22738656 302.05223294 72 301 C82.9813355 298.37045572 91.09674552 292.59968485 97 283 C101.32539456 274.92593015 101.24799158 264.91029973 99.37890625 256.05859375 C96.20313813 247.03941228 90.17209099 240.81375392 81.75 236.5 C67.0527209 229.64634654 51.29934547 232.81298974 40.28125 244.8828125 Z " fill="#FFFFFF" transform="translate(355,3)"/>
</svg>
