<?xml version="1.0" encoding="UTF-8"?>
<svg version="1.1" xmlns="http://www.w3.org/2000/svg" width="368" height="557">
<path d="M0 0 C3.5198837 3.08147525 6.90857146 6.28828237 10.27539062 9.53662109 C11.05140625 10.26107422 11.82742188 10.98552734 12.62695312 11.73193359 C19.25752668 18.08135209 24.82301993 25.17709912 30.27539062 32.53662109 C30.69433594 33.09526855 31.11328125 33.65391602 31.54492188 34.22949219 C51.3893841 61.04314055 64.28917103 96.66917857 64.47851562 130.18115234 C64.4842157 130.99041672 64.48991577 131.79968109 64.49578857 132.63346863 C64.50518337 134.34197712 64.51175042 136.05050328 64.515625 137.7590332 C64.52522195 140.30438313 64.55625227 142.84888558 64.58789062 145.39404297 C64.68839778 160.77993601 62.86652479 175.71173707 58.40039062 190.47412109 C58.16964844 191.28945312 57.93890625 192.10478516 57.70117188 192.94482422 C54.28871832 204.59643703 49.00188791 215.32529547 43.4074707 226.05322266 C42.23613101 228.29940608 41.07050362 230.54847598 39.90625 232.79833984 C38.65900608 235.20851668 37.41145108 237.61852593 36.16223145 240.02767944 C31.77847612 248.48344759 27.43923405 256.96182943 23.10253906 265.44180298 C15.81423579 279.69176992 8.50595569 293.93136437 1.18115234 308.16259766 C-4.9691763 320.11290244 -11.10027867 332.07297409 -17.22460938 344.03662109 C-23.73341647 356.7511628 -30.25115186 369.46101373 -36.78710938 382.16162109 C-43.06714736 394.36524461 -49.33755746 406.57375818 -55.59960938 418.78662109 C-56.43204381 420.40983264 -57.26448195 422.03304227 -58.09692383 423.65625 C-61.99767011 431.26318262 -65.89648623 438.87109483 -69.79067993 446.48138428 C-71.58638273 449.9903249 -73.38302282 453.49878521 -75.17974854 457.00720215 C-76.02636869 458.66101465 -76.87253828 460.31505791 -77.71820068 461.96936035 C-82.95470817 472.2129196 -88.27587847 482.4043069 -93.72460938 492.53662109 C-94.22806885 493.47731445 -94.73152832 494.41800781 -95.25024414 495.38720703 C-99.52719595 503.3321887 -104.07331423 509.07880917 -112.77539062 512.29443359 C-122.07573722 514.858801 -129.64019376 513.32806496 -137.91210938 508.78662109 C-144.12674691 503.81491106 -147.84481347 497.99432249 -151.19726562 490.86083984 C-151.62127151 489.98355728 -152.0452774 489.10627472 -152.48213196 488.20240784 C-153.42287649 486.25464828 -154.35910153 484.30470116 -155.29144287 482.35290527 C-157.6797845 477.35673435 -160.09830812 472.37527009 -162.51891327 467.39466476 C-163.12850378 466.14037328 -163.73775502 464.88591686 -164.34668732 463.63130569 C-170.4689331 451.02299124 -176.72011023 438.48013117 -182.99414062 425.94677734 C-183.48870569 424.958738 -183.98327076 423.97069866 -184.49282265 422.95271873 C-189.01977958 413.91075308 -193.55194895 404.87140302 -198.08621216 395.83309937 C-200.49785839 391.02581696 -202.9076091 386.21758798 -205.3163662 381.40885735 C-206.62796777 378.79212044 -207.94199072 376.17661054 -209.25617981 373.56117249 C-213.63626542 364.82736412 -217.92830648 356.058124 -222.12548828 347.23486328 C-227.22431273 336.51982168 -232.4868115 325.89272353 -237.81121826 315.28823853 C-239.40498432 312.11382708 -240.99599719 308.93804767 -242.58642578 305.76196289 C-245.96352205 299.01902921 -249.34380206 292.27769471 -252.72460938 285.53662109 C-256.65188644 277.7059282 -260.57774023 269.874528 -264.50018311 262.04141235 C-266.044166 258.95978039 -267.59060889 255.8793923 -269.13720703 252.79907227 C-297.71856487 195.78451548 -314.32433334 143.66117817 -294.03710938 80.47412109 C-288.7399892 64.84629888 -281.22874603 50.01062722 -271.72460938 36.53662109 C-271.00660156 35.51439453 -270.28859375 34.49216797 -269.54882812 33.43896484 C-264.12498199 25.9727468 -258.09706145 19.18669772 -251.72460938 12.53662109 C-251.24620605 12.03098633 -250.76780273 11.52535156 -250.27490234 11.00439453 C-192.14391901 -50.21680155 -92.36445276 -61.01635189 0 0 Z M-159.72460938 82.53662109 C-170.13774814 94.71573076 -173.63684649 108.8295566 -172.72460938 124.53662109 C-170.47428069 139.19033622 -163.24988599 151.84835799 -151.41210938 160.84912109 C-142.73731034 166.77191492 -134.19053448 170.38773007 -123.72460938 171.53662109 C-122.67080078 171.66230469 -122.67080078 171.66230469 -121.59570312 171.79052734 C-108.66934853 172.55090114 -94.34753342 167.24772474 -84.63085938 158.97412109 C-73.40465013 148.81410748 -66.68994559 135.54567582 -65.56054688 120.32568359 C-65.03899366 105.67477969 -70.27100171 92.95567857 -79.56054688 81.85693359 C-88.92472581 71.81664065 -101.6112047 65.33562384 -115.33398438 64.25146484 C-133.25304417 63.83091548 -147.33899741 69.49467755 -159.72460938 82.53662109 Z " fill="#FFFFFF" transform="translate(303.724609375,43.46337890625)"/>
</svg>
