<?xml version="1.0" encoding="UTF-8"?>
<svg version="1.1" xmlns="http://www.w3.org/2000/svg" width="424" height="422">
<path d="M0 0 C2.55102689 -0.00269916 5.10205278 -0.0065851 7.65307617 -0.01159668 C12.98204358 -0.01747168 18.31073269 -0.00938224 23.63964844 0.00976562 C29.76612447 0.03152761 35.89206769 0.02447362 42.01853085 0.00246 C47.95645941 -0.01800727 53.89422514 -0.01567839 59.83218384 -0.00401306 C62.33900021 -0.00136068 64.84583035 -0.00456261 67.35263062 -0.01393127 C82.69159537 -0.05868865 96.15066877 -0.03296871 109.625 8.15625 C110.62144531 8.74664062 111.61789062 9.33703125 112.64453125 9.9453125 C113.35996094 10.46867188 114.07539063 10.99203125 114.8125 11.53125 C114.8125 12.19125 114.8125 12.85125 114.8125 13.53125 C115.68068359 13.87542969 115.68068359 13.87542969 116.56640625 14.2265625 C124.56860992 18.87479906 129.09246953 30.09098378 131.8125 38.53125 C133.06007344 44.20099712 132.96740448 49.81955793 132.97363281 55.59448242 C132.97859772 56.69934998 132.98356262 57.80421753 132.98867798 58.94256592 C133.00325888 62.59062325 133.01009515 66.23863709 133.015625 69.88671875 C133.02138017 72.43011984 133.02713785 74.97352092 133.03289795 77.516922 C133.04205631 82.1682217 133.04836105 86.81950844 133.0513947 91.47081488 C133.05586879 98.29086319 133.07339332 105.11071041 133.1023953 111.93069762 C133.12672594 117.86056444 133.13434431 123.79038189 133.13607025 129.72030067 C133.13908712 132.23157152 133.14708282 134.74284171 133.16025543 137.25407982 C133.17741237 140.77655414 133.17541183 144.29854515 133.16894531 147.82104492 C133.1781601 148.84740555 133.18737488 149.87376617 133.1968689 150.93122864 C133.11121589 165.91245115 127.86644903 178.20002446 117.5390625 188.984375 C101.84431451 203.64479862 83.58930767 203.14807679 63.37890625 203.09765625 C60.81167883 203.10290072 58.24445334 203.10918019 55.67723083 203.11643982 C50.3155604 203.12680645 44.95418109 203.12267195 39.5925293 203.10766602 C33.43474978 203.09075243 27.27767966 203.10659101 21.11997753 203.1388889 C15.14516655 203.16901507 9.17071112 203.17072674 3.19581413 203.1613903 C0.67668676 203.16057584 -1.84245593 203.16734154 -4.36153984 203.18216133 C-24.67488653 203.28337022 -39.95047338 201.89195779 -55.4296875 187.4375 C-65.9624449 176.4675338 -69.48454028 163.8241851 -69.49389648 149.02905273 C-69.50222 147.90105759 -69.51054352 146.77306244 -69.51911926 145.61088562 C-69.54313937 141.89550278 -69.55198298 138.18029592 -69.55859375 134.46484375 C-69.56756811 131.86662242 -69.57669009 129.26840159 -69.58595276 126.67018127 C-69.60242505 121.2256612 -69.6101719 115.78121126 -69.61303711 110.33666992 C-69.61666252 104.08022474 -69.64649691 97.82427304 -69.68844169 91.56797832 C-69.7275925 85.51207274 -69.7386351 79.45640329 -69.73976326 73.40037727 C-69.74394468 70.84215692 -69.7562944 68.28393535 -69.77728081 65.72579765 C-69.92337749 46.37269894 -69.20754122 29.99158577 -55.0546875 15.3203125 C-38.89301986 0.17226862 -21.02470866 -0.07857565 0 0 Z M-2.1875 55.53125 C-3.97733568 60.90075705 -4.07181724 65.72860333 -1.5625 70.84375 C1.68558469 74.51921425 4.32284166 77.1470311 9.23925781 77.90576172 C12.20833201 78.06028014 15.15196423 78.08556013 18.125 78.0625 C19.21208252 78.0663269 20.29916504 78.07015381 21.41918945 78.07409668 C23.71208627 78.07681241 26.00501425 78.06947511 28.29785156 78.05273438 C31.80083506 78.03132131 35.30176755 78.05254906 38.8046875 78.078125 C41.03646285 78.07548167 43.26823692 78.07035657 45.5 78.0625 C46.54389893 78.07059692 47.58779785 78.07869385 48.66333008 78.08703613 C54.70438667 78.00940863 58.21236996 77.55360371 62.8125 73.53125 C66.48463845 69.37593544 67.46785778 66.11251268 67.1953125 60.70703125 C66.37711127 56.05664262 63.81845659 53.41085845 60.37109375 50.39648438 C55.8197691 47.47142236 50.73666172 47.95938223 45.5 48 C44.41291748 47.9961731 43.32583496 47.99234619 42.20581055 47.98840332 C39.91291373 47.98568759 37.61998575 47.99302489 35.32714844 48.00976562 C31.82416494 48.03117869 28.32323245 48.00995094 24.8203125 47.984375 C22.58853715 47.98701833 20.35676308 47.99214343 18.125 48 C17.08110107 47.99190308 16.03720215 47.98380615 14.96166992 47.97546387 C7.4504315 48.07198319 2.7547971 49.5484693 -2.1875 55.53125 Z " fill="#FFFFFF" transform="translate(180.1875,-0.53125)"/>
<path d="M0 0 C1.66842705 -0.01029488 1.66842705 -0.01029488 3.37055969 -0.02079773 C7.00897367 -0.03894193 10.64695135 -0.03524599 14.28540039 -0.02954102 C16.83785643 -0.03410854 19.39031123 -0.0394158 21.94276428 -0.04542542 C27.27765494 -0.05433212 32.61238975 -0.05219828 37.94726562 -0.04199219 C44.08108841 -0.03051567 50.2144737 -0.0445939 56.34823889 -0.07138866 C62.29095309 -0.09635962 68.23353335 -0.0986996 74.17630196 -0.0922718 C76.68591604 -0.09211925 79.19553881 -0.09810872 81.70512199 -0.11056328 C101.70535023 -0.19585485 117.91330447 1.21026538 133.31665039 15.36889648 C144.13073285 27.08227894 147.3397305 40.84302112 147.35668945 56.28369141 C147.36165436 57.36905182 147.36661926 58.45441223 147.37173462 59.57266235 C147.38631374 63.15578857 147.39315151 66.7388705 147.39868164 70.32202148 C147.40443698 72.82058208 147.41019466 75.31914266 147.41595459 77.81770325 C147.42511259 82.38690341 147.43141752 86.95609096 147.43445134 91.52529925 C147.43848068 97.55860236 147.45073764 103.59174955 147.47680664 109.625 C147.50441596 116.115848 147.51720391 122.60656235 147.51912689 129.09746742 C147.52214331 131.56408108 147.53013746 134.03069408 147.54331207 136.4972744 C147.56047342 139.95748536 147.55846742 143.4172045 147.55200195 146.87744141 C147.56121674 147.88510056 147.57043152 148.8927597 147.57992554 149.93095398 C147.52621467 159.16300709 145.50710334 167.55145568 141.25805664 175.77905273 C140.7746582 176.73553711 140.29125977 177.69202148 139.79321289 178.67749023 C138.13588523 181.50588805 136.38870967 183.96721604 134.19555664 186.40405273 C133.53555664 186.40405273 132.87555664 186.40405273 132.19555664 186.40405273 C131.86555664 187.39405273 131.53555664 188.38405273 131.19555664 189.40405273 C122.50531337 197.09227634 110.95367408 202.50292834 99.26449585 202.54449463 C97.8139682 202.55305984 97.8139682 202.55305984 96.33413696 202.5617981 C95.28470917 202.56291595 94.23528137 202.56403381 93.15405273 202.56518555 C91.48234009 202.5726329 91.48234009 202.5726329 89.77685547 202.58023071 C86.09089539 202.59483127 82.40497838 202.60165162 78.71899414 202.60717773 C76.15174356 202.61293184 73.58449299 202.61868954 71.01724243 202.62445068 C66.3200522 202.63361349 61.6228791 202.63991558 56.92568147 202.64294744 C50.03657333 202.64741975 43.14766442 202.6649331 36.25861681 202.69394803 C30.271607 202.71827838 24.2846905 202.72589709 18.2976265 202.72762299 C15.76123598 202.73064041 13.22484612 202.73863802 10.68848801 202.75180817 C7.12998348 202.76896372 3.57195744 202.76696474 0.01342773 202.76049805 C-1.02385468 202.76971283 -2.06113708 202.77892761 -3.12985229 202.78842163 C-17.62834232 202.70635919 -29.95808048 197.83421863 -40.48022461 187.85717773 C-48.59077339 179.2968002 -54.89214895 168.49360313 -54.95161438 156.44812012 C-54.95876968 155.45026489 -54.96592499 154.45240967 -54.97329712 153.42431641 C-54.97598602 152.33546143 -54.97867493 151.24660645 -54.98144531 150.12475586 C-54.98801651 148.9730188 -54.99458771 147.82128174 -55.00135803 146.63464355 C-55.02108734 142.81819594 -55.03275478 139.00178774 -55.04272461 135.18530273 C-55.04680014 133.88004135 -55.05087566 132.57477997 -55.05507469 131.22996521 C-55.07412163 125.02989352 -55.08834976 118.82983364 -55.09668666 112.62973833 C-55.10643645 105.49833389 -55.1326984 98.3672417 -55.17318755 91.23594713 C-55.20347957 85.70875825 -55.21816812 80.18165815 -55.22146767 74.65438795 C-55.22380468 71.36078653 -55.2346 68.06759243 -55.25792885 64.77406311 C-55.28240464 61.08862847 -55.28133893 57.40399772 -55.27441406 53.71850586 C-55.28722412 52.64584473 -55.30003418 51.57318359 -55.31323242 50.46801758 C-55.2175277 36.40393491 -49.60706495 24.41364364 -40.11694336 14.15405273 C-28.68049378 3.4227407 -15.33705519 -0.0676141 0 0 Z M13.19555664 53.40405273 C10.53919138 57.8036577 9.60196039 61.40423434 10.48852539 66.41186523 C12.04433415 70.79563577 15.08607929 74.25012358 19.15039062 76.47338867 C23.64753803 77.84780749 28.00558481 77.72933477 32.68383789 77.73999023 C33.70100388 77.74664703 34.71816986 77.75330383 35.76615906 77.76016235 C37.91537675 77.77027273 40.06462574 77.77497987 42.21386719 77.7746582 C45.4862907 77.7790237 48.75735661 77.81534025 52.02954102 77.85327148 C54.12263539 77.85914165 56.21573613 77.8631097 58.30883789 77.86499023 C59.27992996 77.87936127 60.25102203 77.8937323 61.25154114 77.90853882 C67.41137006 77.86752855 72.04896426 76.90971943 77.19555664 73.40405273 C80.81815498 69.54773838 81.55983259 65.72687424 81.47290039 60.46264648 C80.85803021 55.89875092 78.09349167 53.1935463 74.765625 50.26757812 C70.17036612 47.31975351 64.98332112 47.81298399 59.69946289 47.83764648 C58.592556 47.83144791 57.48564911 47.82524933 56.34519958 47.81886292 C54.00943886 47.81177403 51.6736275 47.81492238 49.33789062 47.82763672 C45.77321926 47.84149379 42.21117808 47.80742404 38.64672852 47.76928711 C36.37263933 47.76833577 34.09854688 47.77019552 31.82446289 47.77514648 C30.23354576 47.75525917 30.23354576 47.75525917 28.61048889 47.73497009 C21.80658828 47.82014504 18.24735657 48.75397963 13.19555664 53.40405273 Z " fill="#FFFFFF" transform="translate(54.804443359375,219.595947265625)"/>
<path d="M0 0 C1.45052765 -0.00856522 1.45052765 -0.00856522 2.93035889 -0.01730347 C3.97978668 -0.01842133 5.02921448 -0.01953918 6.11044312 -0.02069092 C7.78215576 -0.02813828 7.78215576 -0.02813828 9.48764038 -0.03573608 C13.17360046 -0.05033664 16.85951747 -0.05715699 20.54550171 -0.06268311 C23.11275229 -0.06843721 25.68000286 -0.07419491 28.24725342 -0.07995605 C32.94444365 -0.08911886 37.64161675 -0.09542095 42.33881438 -0.09845281 C49.22792252 -0.10292512 56.11683143 -0.12043847 63.00587904 -0.1494534 C68.99288885 -0.17378375 74.97980534 -0.18140246 80.96686935 -0.18312836 C83.50325987 -0.18614578 86.03964973 -0.19414339 88.57600784 -0.20731354 C92.13451237 -0.22446909 95.69253841 -0.22247011 99.25106812 -0.21600342 C100.28835052 -0.2252182 101.32563293 -0.23443298 102.39434814 -0.243927 C117.88469494 -0.15625058 130.39666188 5.461984 141.36581421 16.25372314 C155.50661466 31.35495368 154.6707741 49.5994666 154.60018921 69.01934814 C154.60288802 71.64003137 154.60677366 74.26071361 154.61178589 76.88139343 C154.61902671 82.35576578 154.60956816 87.82992101 154.59042358 93.30426025 C154.56865055 99.60229838 154.57572332 105.89981844 154.59772921 112.19784409 C154.61817774 118.29811726 154.61587507 124.39816365 154.60420227 130.49845695 C154.60154733 133.07587699 154.60476097 135.65331039 154.61412048 138.2307148 C154.6243571 141.84102808 154.60868481 145.45036663 154.58651733 149.06060791 C154.59461426 150.1097789 154.60271118 151.15894989 154.61105347 152.23991394 C154.45651519 165.92717558 149.04883143 177.95923706 139.75643921 187.95294189 C130.86869553 196.24552417 118.39926804 202.22484831 106.15133667 202.28761292 C105.18720856 202.29476822 104.22308044 202.30192352 103.22973633 202.30929565 C102.18345062 202.31198456 101.13716492 202.31467346 100.05917358 202.31744385 C98.94791107 202.32401505 97.83664856 202.33058624 96.69171143 202.33735657 C93.01536995 202.35705934 89.33906934 202.36874733 85.66268921 202.37872314 C83.77424034 202.38483644 83.77424034 202.38483644 81.84764099 202.39107323 C75.86701336 202.40977617 69.8864103 202.42434227 63.90576124 202.4326852 C57.03359381 202.44243323 50.16175055 202.46869383 43.28969717 202.50918609 C37.3133688 202.54317439 31.33719574 202.55484581 25.36076355 202.55888939 C22.83159695 202.56374106 20.30243345 202.57531415 17.77333069 202.59392738 C-1.37591488 202.72606595 -18.12299641 201.96130199 -32.93106079 188.14044189 C-32.93106079 187.48044189 -32.93106079 186.82044189 -32.93106079 186.14044189 C-33.92106079 185.81044189 -34.91106079 185.48044189 -35.93106079 185.14044189 C-43.07996928 176.1503992 -48.01770262 164.88991128 -48.07823181 153.30549622 C-48.08538712 152.35964157 -48.09254242 151.41378693 -48.09991455 150.43927002 C-48.10260345 149.41325684 -48.10529236 148.38724365 -48.10806274 147.33013916 C-48.11463394 146.23999008 -48.12120514 145.149841 -48.12797546 144.0266571 C-48.14767797 140.42005336 -48.15936686 136.81349129 -48.16934204 133.20684814 C-48.17341757 131.97119551 -48.1774931 130.73554287 -48.18169212 129.46244621 C-48.200396 123.59127706 -48.21496122 117.72012415 -48.22330409 111.8489309 C-48.23304679 105.10638164 -48.25929265 98.36416327 -48.29980499 91.62173039 C-48.33382346 85.75540697 -48.34546724 79.88919255 -48.34950829 74.02277946 C-48.35435565 71.54188742 -48.36591626 69.06099842 -48.38454628 66.58017159 C-48.52650919 46.41615084 -47.24197501 29.58006753 -32.97012329 14.01934814 C-24.11604743 5.86070736 -12.1481841 0.0431985 0 0 Z M20.81893921 53.70294189 C17.87113854 57.80880711 17.54056467 61.16259759 18.06893921 66.14044189 C19.96584962 70.92788246 21.73671232 74.12767844 26.50839233 76.19976807 C31.29010057 77.46306496 35.79954461 77.4458121 40.72518921 77.44122314 C41.74568359 77.44550827 42.76617798 77.4497934 43.81759644 77.45420837 C45.96924092 77.45993608 48.12090477 77.46046346 50.27255249 77.45611572 C53.55788238 77.45295254 56.84231404 77.47644615 60.12753296 77.50177002 C62.22258391 77.5040429 64.31763727 77.50474656 66.41268921 77.50372314 C67.88010559 77.51753777 67.88010559 77.51753777 69.37716675 77.53163147 C76.3821398 77.48426435 80.71977744 76.43740007 85.88143921 71.39044189 C88.69780803 67.20612251 89.61443793 64.11795574 88.69393921 59.09356689 C87.30007765 54.45897722 85.37764663 52.05836011 81.29922485 49.22348022 C76.89789252 47.08617031 72.20459179 47.4727152 67.40487671 47.54669189 C66.29464142 47.54665161 65.18440613 47.54661133 64.04052734 47.54656982 C61.70228387 47.55191405 59.36404019 47.56944939 57.02597046 47.59844971 C53.44858949 47.64038738 49.87308767 47.63950748 46.29550171 47.63262939 C44.01944697 47.64311969 41.74340192 47.65605693 39.46737671 47.67169189 C38.39957977 47.67189331 37.33178284 47.67209473 36.23162842 47.67230225 C29.38020625 47.78153012 25.49911737 48.37273899 20.81893921 53.70294189 Z " fill="#FFFFFF" transform="translate(269.9310607910156,219.85955810546875)"/>
</svg>
