<?xml version="1.0" encoding="UTF-8"?>
<svg version="1.1" xmlns="http://www.w3.org/2000/svg" width="166" height="220">
<path d="M0 0 C7.4854513 4.70039909 14.83654187 9.56312896 22.125 14.5625 C29.54579382 19.63442946 36.98709886 24.67246377 44.47265625 29.6484375 C45.19519592 30.12887009 45.9177356 30.60930267 46.66217041 31.10429382 C50.20677978 33.45998522 53.7536669 35.81216972 57.30322266 38.16040039 C64.5161027 42.9428725 71.64430814 47.81361461 78.65141296 52.89414978 C81.71537036 55.12398354 81.71537036 55.12398354 85 57 C83.69095827 60.60175185 82.11778443 63.48748126 79.87109375 66.5859375 C77.21764402 70.29402514 74.60144475 74.0199641 72.03515625 77.7890625 C71.38095703 78.74941406 70.72675781 79.70976562 70.05273438 80.69921875 C69.39595703 81.66472656 68.73917969 82.63023437 68.0625 83.625 C67.37865234 84.62917969 66.69480469 85.63335937 65.99023438 86.66796875 C64.32624635 89.11158753 62.6628443 91.55560285 61 94 C56.73094208 93.26812341 54.38861835 92.09741173 50.9375 89.4375 C45.71243711 85.43618065 40.27470448 81.80797958 34.78457642 78.17984009 C29.43812965 74.6451345 24.10216651 71.09455377 18.76464844 67.54638672 C17.34235065 66.60154216 15.91950182 65.65752655 14.49609375 64.71435547 C6.46422584 59.39120913 -1.50943559 54.01351794 -9.30795288 48.3520813 C-14.39648632 44.66592188 -19.65170057 41.29629883 -25 38 C-23.23500523 34.14605951 -20.88869297 30.69756366 -18.53515625 27.1875 C-18.10118027 26.53676514 -17.66720428 25.88603027 -17.22007751 25.21557617 C-16.30414355 23.84318211 -15.38709133 22.4715338 -14.46899414 21.10058594 C-13.06847307 19.00892073 -11.67164989 16.91482438 -10.27539062 14.8203125 C-9.38302989 13.48422978 -8.49045874 12.14828757 -7.59765625 10.8125 C-7.18193863 10.18947998 -6.76622101 9.56645996 -6.33790588 8.92456055 C-4.30183238 5.88694605 -2.23189502 2.89737449 0 0 Z " fill="#FEFEFE" transform="translate(81,125)"/>
<path d="M0 0 C14.85 0 29.7 0 45 0 C45 24.42 45 48.84 45 74 C30.15 74 15.3 74 0 74 C0 49.58 0 25.16 0 0 Z " fill="#FEFEFE" transform="translate(0,0)"/>
<path d="M0 0 C3.27225412 1.09075137 3.64173678 1.51488871 5.49609375 4.21875 C5.96692383 4.89607178 6.43775391 5.57339355 6.92285156 6.27124023 C7.42268555 7.00673096 7.92251953 7.74222168 8.4375 8.5 C9.50349894 10.04325018 10.56991818 11.58621011 11.63671875 13.12890625 C12.18634277 13.92828613 12.7359668 14.72766602 13.30224609 15.55126953 C14.99822886 17.99744542 16.72173087 20.42143163 18.45703125 22.83984375 C19.00883057 23.61070313 19.56062988 24.3815625 20.12915039 25.17578125 C21.19715746 26.66606857 22.26789567 28.15440298 23.34155273 29.640625 C27 34.77632148 27 34.77632148 27 37 C25.56982422 38.26171875 25.56982422 38.26171875 23.5546875 39.6875 C22.81476563 40.21601562 22.07484375 40.74453125 21.3125 41.2890625 C20.508125 41.85367188 19.70375 42.41828125 18.875 43 C17.64136719 43.87785156 17.64136719 43.87785156 16.3828125 44.7734375 C14.70735566 45.96498911 13.02994607 47.15379973 11.35058594 48.33984375 C8.77374249 50.15979965 6.20566184 51.99163371 3.63989258 53.82714844 C2.54152165 54.61270359 1.44239262 55.39719978 0.3425293 56.18066406 C-2.9659078 58.53819307 -6.26234666 60.91151042 -9.55078125 63.296875 C-10.34033203 63.86921875 -11.12988281 64.4415625 -11.94335938 65.03125 C-13.47048139 66.13913736 -14.99660129 67.24840801 -16.52148438 68.359375 C-21.59571914 72.03969034 -26.761204 75.55821945 -32 79 C-36.42515047 74.87861681 -39.82986048 70.30454316 -43.3125 65.375 C-44.45647908 63.76523246 -45.60100961 62.15585666 -46.74609375 60.546875 C-47.29894043 59.76892578 -47.85178711 58.99097656 -48.42138672 58.18945312 C-49.80399068 56.27185456 -51.2155955 54.38669636 -52.66015625 52.515625 C-53.39105469 51.56171875 -54.12195312 50.6078125 -54.875 49.625 C-55.51179688 48.81289062 -56.14859375 48.00078125 -56.8046875 47.1640625 C-58 45 -58 45 -58.06640625 42.98828125 C-56.44452236 39.96432924 -53.8498572 38.42073814 -51.0625 36.5625 C-49.77798848 35.67673376 -48.49416759 34.7899654 -47.2109375 33.90234375 C-46.52612305 33.43296387 -45.84130859 32.96358398 -45.13574219 32.47998047 C-41.44334054 29.92129977 -37.82040758 27.26711461 -34.1875 24.625 C-27.44138926 19.73871385 -20.65740078 14.90932297 -13.83276367 10.13330078 C-13.18412354 9.67810059 -12.5354834 9.22290039 -11.8671875 8.75390625 C-11.23522461 8.31191895 -10.60326172 7.86993164 -9.95214844 7.41455078 C-8.55659954 6.40331887 -7.18726939 5.35550279 -5.83691406 4.28466797 C-5.13018555 3.72537598 -4.42345703 3.16608398 -3.6953125 2.58984375 C-3.05867676 2.07156006 -2.42204102 1.55327637 -1.76611328 1.01928711 C-0.89188721 0.51473999 -0.89188721 0.51473999 0 0 Z " fill="#FEFEFE" transform="translate(116,34)"/>
<path d="M0 0 C14.85 0 29.7 0 45 0 C45 17.82 45 35.64 45 54 C30.15 54 15.3 54 0 54 C0 36.18 0 18.36 0 0 Z " fill="#FEFEFE" transform="translate(0,166)"/>
</svg>
