<?xml version="1.0" encoding="UTF-8"?>
<svg version="1.1" xmlns="http://www.w3.org/2000/svg" width="526" height="526">
<path d="M0 0 C0.92167969 0.76957031 1.84335938 1.53914063 2.79296875 2.33203125 C3.91251953 3.22341797 3.91251953 3.22341797 5.0546875 4.1328125 C25.56555941 21.01700765 38.26136258 48.56620575 41.4765625 74.51953125 C41.83673635 78.85940384 42.04257514 83.16594595 42.10546875 87.51953125 C42.13205566 88.55823364 42.13205566 88.55823364 42.15917969 89.61791992 C42.15362257 93.78066766 41.81494767 97.43580317 40.59889221 101.42375374 C39.02639105 107.05283645 37.38119138 112.9605427 39.72719002 118.56306028 C43.32864526 124.2641111 48.27263445 128.82938886 53.08203125 133.49951172 C54.6579908 135.10859582 56.22925207 136.72229283 57.79615784 138.3401947 C62.05066301 142.7032013 66.37164946 146.9939993 70.71166611 151.27175283 C74.33441852 154.85590338 77.92156601 158.47464538 81.50899792 162.09409535 C90.45912583 171.12378721 99.47270185 180.08612569 108.51983011 189.01829697 C115.86990737 196.27828931 123.15725345 203.5967056 130.40283203 210.9609375 C138.83649251 219.53267464 147.30943436 228.06178698 155.84272766 236.53466141 C160.35239917 241.01272801 164.84406022 245.50553328 169.29400635 250.04302597 C173.48310638 254.30959541 177.72707706 258.51285825 182.01939201 262.67549324 C183.57943469 264.20713682 185.11966193 265.75928596 186.63708687 267.33316231 C194.29224302 275.65045338 194.29224302 275.65045338 204.46527481 279.63238382 C209.99455273 279.46766162 215.16729434 278.30960147 220.48925209 276.87533212 C243.17932742 271.52418029 271.30261505 281.82816918 290.56298828 293.39501953 C318.10371975 310.63660737 333.93102156 336.89406307 341.32324219 368.12255859 C345.86750446 389.49759683 343.17647314 413.62437778 333.79296875 433.33203125 C330.74932257 437.57911526 327.90359463 440.15213867 322.98046875 442.01953125 C315.83398863 443.04045698 310.84684246 442.4466262 304.79296875 438.33203125 C301.00963975 434.98439416 297.46910263 431.4321524 293.94474411 427.81503105 C292.16222906 425.9856812 290.36756017 424.16904932 288.56948853 422.35499573 C285.40367048 419.15704763 282.24879194 415.94855888 279.09747314 412.73632812 C274.04927616 407.59056216 268.99266534 402.4532962 263.92073441 397.33091927 C262.15822413 395.54532683 260.40548507 393.7505292 258.65316772 391.9549408 C257.56786112 390.85553478 256.48215804 389.75651997 255.39599609 388.65795898 C254.91584549 388.16073837 254.43569489 387.66351776 253.94099426 387.15122986 C249.30870217 382.50223559 244.48162439 379.86714944 237.875 379.2734375 C233.44072358 379.39822952 229.58895595 380.74519699 226.25 383.6953125 C222.68007658 387.74680916 221.0185417 391.33947022 220.41796875 396.64453125 C221.44062107 406.70061238 228.63544514 412.65501945 235.49516487 419.30432129 C237.35885798 421.11183785 239.20889632 422.93239408 241.05601501 424.75683594 C245.6429889 429.28265731 250.24968494 433.7881936 254.86065674 438.28955078 C258.76583079 442.10236026 262.66080248 445.925007 266.54189873 449.7623291 C268.35744514 451.5493723 270.18710356 453.32106007 272.01759338 455.09277344 C273.13758286 456.19778523 274.25683869 457.30354126 275.37524414 458.41015625 C275.88181549 458.89246704 276.38838684 459.37477783 276.91030884 459.8717041 C281.54220821 464.51438262 283.4920815 469.47360234 284.16796875 475.89453125 C283.48766357 482.13066206 280.95933521 486.73289081 276.79296875 491.33203125 C253.92289361 504.77002126 222.79040535 503.66264983 198.0078125 497.37109375 C183.39784879 492.96466619 169.11413898 485.60194996 157.79296875 475.33203125 C156.96796875 474.6359375 156.14296875 473.93984375 155.29296875 473.22265625 C133.63184322 454.5993715 119.95297233 426.8020785 117.79296875 398.33203125 C117.62020758 395.26900353 117.52750009 392.21198465 117.48046875 389.14453125 C117.46266357 388.45182129 117.4448584 387.75911133 117.42651367 387.04541016 C117.43253861 382.88078618 117.77182711 379.22547342 118.98939705 375.23596573 C121.38943891 366.65758324 121.38943891 366.65758324 119.8532443 358.11045933 C116.23092667 352.43963413 111.26543062 347.91722715 106.43701172 343.28808594 C104.85460665 341.69222583 103.27697323 340.09162233 101.70376587 338.48669434 C97.43405349 334.15959342 93.09898971 329.90412181 88.74688482 325.66010189 C84.19700223 321.20339541 79.70510646 316.68891283 75.20510864 312.1819458 C67.64373764 304.62629299 60.0411354 297.11453584 52.40966797 289.62988281 C44.56543223 281.9364857 36.76242528 274.20416518 29.00146484 266.42675781 C28.28377182 265.7075574 28.28377182 265.7075574 27.55157994 264.97382769 C27.07392481 264.49516895 26.59626969 264.01651021 26.10414016 263.52334666 C17.70078015 255.103114 9.26302417 246.71809838 0.8069191 238.35080719 C-2.78872033 234.79267777 -6.37361651 231.2242157 -9.95056534 227.64730072 C-14.16313875 223.43899964 -18.40484027 219.26239885 -22.67093277 215.10838318 C-24.23112399 213.5800205 -25.78133102 212.04138826 -27.32057953 210.49193573 C-34.82654745 202.2955149 -34.82654745 202.2955149 -44.50579453 197.65445709 C-47.31667868 197.88262108 -49.55565987 198.4076822 -52.20703125 199.33203125 C-53.56915898 199.54891821 -54.9370008 199.73342532 -56.30859375 199.87890625 C-58.23832031 200.10320312 -58.23832031 200.10320312 -60.20703125 200.33203125 C-94.16422553 202.28965221 -124.05379831 191.7242313 -149.5 169.3125 C-164.71140891 154.89050553 -175.35956878 135.6502254 -180.20703125 115.33203125 C-180.3678418 114.67058105 -180.52865234 114.00913086 -180.69433594 113.32763672 C-185.92074787 90.91872206 -185.38197709 62.35783704 -173.24609375 42.05078125 C-169.65338406 37.26050167 -165.48094809 35.31279065 -159.70703125 34.45703125 C-154.38522006 34.13395334 -150.36978797 34.58549023 -146.07290649 38.05545044 C-139.96458969 43.61014241 -134.09382411 49.36767147 -128.31965256 55.2665062 C-126.20575755 57.4233646 -124.08172791 59.5701346 -121.9584446 61.71774483 C-118.02943604 65.69207907 -114.10478662 69.67052269 -110.19628906 73.66503906 C-107.45298094 76.4679394 -104.69743903 79.25829403 -101.93358231 82.04092789 C-100.89168807 83.09449295 -99.85432162 84.15255736 -98.82181931 85.21532822 C-90.2568832 94.13918677 -90.2568832 94.13918677 -78.6328125 97.51171875 C-74.14191656 96.86423283 -71.00716851 95.98061177 -67.20703125 93.33203125 C-66.54703125 93.33203125 -65.88703125 93.33203125 -65.20703125 93.33203125 C-64.91828125 92.61015625 -64.62953125 91.88828125 -64.33203125 91.14453125 C-63.20703125 88.33203125 -63.20703125 88.33203125 -62.01953125 86.14453125 C-60.76161686 81.7902122 -60.85219625 77.65661618 -62.20703125 73.33203125 C-66.51278912 66.27120117 -72.70041873 60.62758825 -78.56509972 54.88476372 C-80.31529492 53.16976472 -82.05795249 51.44741751 -83.79878235 49.72291565 C-88.74410254 44.82615572 -93.70080996 39.94104176 -98.66625977 35.06469727 C-101.71619254 32.06847636 -104.75618877 29.06246258 -107.79038429 26.05031013 C-108.94238753 24.91066861 -110.09816511 23.7748286 -111.25784874 22.64300346 C-112.88003701 21.05947406 -114.48931553 19.46379047 -116.09643555 17.86499023 C-117.01321579 16.96312485 -117.92999603 16.06125946 -118.8745575 15.13206482 C-122.74562511 10.48501606 -124.8399787 5.65100777 -124.55078125 -0.5546875 C-123.63392131 -6.19129236 -121.48280421 -10.39219579 -117.45703125 -14.41796875 C-82.15394851 -36.20072193 -30.1572338 -24.68194588 0 0 Z " fill="#FFFFFF" transform="translate(183.20703125,24.66796875)"/>
<path d="M0 0 C0.77214844 -0.01933594 1.54429687 -0.03867187 2.33984375 -0.05859375 C9.88400169 1.31602326 14.94385134 5.75863021 20.0625 11.1875 C20.64644531 11.78949219 21.23039063 12.39148438 21.83203125 13.01171875 C23.25164672 14.47787899 24.65846419 15.95641344 26.0625 17.4375 C30.34085948 15.60800107 32.85165785 12.6794446 35.96484375 9.3125 C40.63547206 5.13763671 45.40518318 5.05032614 51.4140625 5.1953125 C56.75971279 5.68414778 59.7822987 7.92349884 63.3125 11.75 C67.00751025 16.40513102 68.29200639 20.30119447 68.0625 26.25 C67.04717966 34.27586557 61.86603643 40.14604031 56.0625 45.4375 C57.92231051 50.26607635 61.94532897 53.38824521 65.63085938 56.83984375 C70.2631125 61.30645528 73.22795384 65.75457341 73.9375 72.3125 C74.03804687 73.09367187 74.13859375 73.87484375 74.2421875 74.6796875 C73.51412137 85.85391988 65.25104732 91.44012125 57.38085938 98.39648438 C52.14103946 103.0871291 52.14103946 103.0871291 49.43920898 109.35180664 C49.4524671 112.10554064 49.69220582 114.71153363 50.0625 117.4375 C48.81874724 138.27670448 35.19425077 150.20972578 21.05670166 163.86566162 C18.07658918 166.75131034 15.11951323 169.66052669 12.16057587 172.56785774 C9.85764757 174.8302333 7.55014778 177.08734592 5.23205566 179.334198 C0.25420721 184.17734989 -4.44023137 189.14663955 -8.9375 194.4375 C-23.83238727 210.83633706 -43.2839566 221.40119203 -65.59375 222.640625 C-87.25297964 222.90476195 -106.61394883 216.77504345 -122.5625 201.7734375 C-123.34625 201.00257813 -124.13 200.23171875 -124.9375 199.4375 C-125.989375 198.40496094 -125.989375 198.40496094 -127.0625 197.3515625 C-141.6204717 182.0543188 -147.596142 161.9113243 -147.20703125 141.109375 C-146.74100589 130.13596991 -144.01219195 119.78633912 -139.1875 109.9375 C-138.88908203 109.32769287 -138.59066406 108.71788574 -138.28320312 108.08959961 C-133.18219388 98.43132366 -125.36990367 90.58177493 -117.65234375 82.9921875 C-116.79242325 82.13746857 -115.93250275 81.28274963 -115.04652405 80.40213013 C-112.32746859 77.70070973 -109.60176101 75.0061405 -106.875 72.3125 C-104.14556592 69.61084089 -101.41768069 66.90766237 -98.69276428 64.20144653 C-97.00600544 62.52678082 -95.31658224 60.85479273 -93.62400818 59.18600464 C-88.83935695 54.44170069 -84.31837068 49.55520294 -79.9375 44.4375 C-68.88747344 32.30942207 -57.21468349 25.50851507 -40.62890625 24.515625 C-37.9375 24.4375 -37.9375 24.4375 -35.5715332 24.71313477 C-31.8303807 24.32164703 -30.65061544 22.6609826 -28.1015625 19.94921875 C-27.20179687 19.01529297 -26.30203125 18.08136719 -25.375 17.11914062 C-24.43619855 16.12231785 -23.49870776 15.12425915 -22.5625 14.125 C-9.30200111 0.01547754 -9.30200111 0.01547754 0 0 Z " fill="#FFFFFF" transform="translate(146.9375,303.5625)"/>
<path d="M0 0 C5.47291045 3.94049553 7.90166517 7.57726457 9.125 14.25 C8.94809249 20.63556034 7.35864586 26.52577899 5.39453125 32.5625 C5.12162766 33.41626221 4.84872406 34.27002441 4.56755066 35.1496582 C3.99112771 36.94267809 3.41019576 38.73425415 2.82495117 40.52441406 C1.94147573 43.23778953 1.08241437 45.95810396 0.22460938 48.6796875 C-3.71120819 60.95119347 -8.102876 70.06524715 -17.4375 79.125 C-17.98857422 79.67929688 -18.53964844 80.23359375 -19.10742188 80.8046875 C-24.52432398 86.15090642 -29.02025049 88.99722954 -36.6875 89.5 C-41.03836681 89.45941356 -43.99156046 88.15364683 -47.875 86.25 C-48.865 85.92 -49.855 85.59 -50.875 85.25 C-51.49730279 85.87598996 -52.11960558 86.50197992 -52.76076603 87.14693928 C-67.90659572 102.38112364 -83.06349988 117.60421137 -98.23278904 132.81503773 C-105.56829055 140.17116045 -112.90000356 147.53098587 -120.22290039 154.8996582 C-126.60587943 161.32251822 -132.99586927 167.73830529 -139.39436001 174.14571398 C-142.78176291 177.53832942 -146.16556185 180.93437106 -149.54098701 184.33890724 C-152.7194385 187.54454742 -155.90719454 190.74063238 -159.10227013 193.92970085 C-160.27195668 195.10048608 -161.43823035 196.27469274 -162.60076141 197.45258331 C-164.19191118 199.06371445 -165.79502925 200.66193812 -167.40162659 202.25764465 C-168.29484399 203.15454923 -169.18806139 204.0514538 -170.10834599 204.9755373 C-175.43966587 209.3584085 -180.66561697 210.77386865 -187.515625 210.53515625 C-193.38074188 209.82629279 -197.16979241 206.65619282 -200.875 202.25 C-203.74848734 197.09753995 -205.02741956 192.06654281 -203.875 186.25 C-200.6650135 177.89508062 -194.55220196 172.39079891 -188.31347656 166.234375 C-187.1199238 165.0419518 -185.92725367 163.84864459 -184.73539734 162.65452576 C-181.51115923 159.42914386 -178.27477147 156.21621147 -175.03600407 153.00542831 C-171.64823478 149.64272843 -168.27185114 146.26863542 -164.89422607 142.89575195 C-158.50268724 136.51662659 -152.10102408 130.14776314 -145.69562984 123.78255367 C-138.4011869 116.53287903 -131.11815016 109.27179149 -123.83603334 102.00973892 C-108.86164924 87.07712226 -93.87305046 72.15884397 -78.875 57.25 C-79.15867432 56.57018066 -79.44234863 55.89036133 -79.73461914 55.18994141 C-80.10192139 54.29452637 -80.46922363 53.39911133 -80.84765625 52.4765625 C-81.21383057 51.59049316 -81.58000488 50.70442383 -81.95727539 49.79150391 C-83.95302261 44.26457427 -83.05793875 39.83424296 -80.94555664 34.47558594 C-73.54343983 19.08728563 -59.63511808 12.00943939 -44.36132812 6.61547852 C-9.70177425 -5.17567654 -9.70177425 -5.17567654 0 0 Z " fill="#FFFFFF" transform="translate(513.875,5.75)"/>
</svg>
